<?xml version="1.0" encoding="UTF-8" standalone="no"?>
<!-- Created with Inkscape (http://www.inkscape.org/) -->

<svg
   width="64.717003"
   height="86.292984"
   viewBox="0 0 17.12304 22.831685"
   version="1.1"
   id="svg1"
   inkscape:version="1.3.2 (091e20e, 2023-11-25, custom)"
   sodipodi:docname="lutCHATefeito.svg"
   xmlns:inkscape="http://www.inkscape.org/namespaces/inkscape"
   xmlns:sodipodi="http://sodipodi.sourceforge.net/DTD/sodipodi-0.dtd"
   xmlns="http://www.w3.org/2000/svg"
   xmlns:svg="http://www.w3.org/2000/svg">
  <sodipodi:namedview
     id="namedview1"
     pagecolor="#ffffff"
     bordercolor="#000000"
     borderopacity="0.25"
     inkscape:showpageshadow="2"
     inkscape:pageopacity="0.0"
     inkscape:pagecheckerboard="0"
     inkscape:deskcolor="#d1d1d1"
     inkscape:document-units="px"
     inkscape:zoom="5.1606349"
     inkscape:cx="73.053027"
     inkscape:cy="54.741326"
     inkscape:window-width="1920"
     inkscape:window-height="1017"
     inkscape:window-x="1072"
     inkscape:window-y="239"
     inkscape:window-maximized="1"
     inkscape:current-layer="layer1" />
  <defs
     id="defs1" />
  <g
     inkscape:label="Camada 1"
     inkscape:groupmode="layer"
     id="layer1"
     transform="translate(-26.301998,-34.443019)">
    <g
       id="text36"
       style="font-weight:bold;font-size:4.87248px;font-family:Calibri;-inkscape-font-specification:'Calibri Bold';text-align:center;text-anchor:middle;fill:#ff0000;stroke:#000000;stroke-width:0.396875;stroke-linecap:round;stroke-linejoin:round"
       transform="scale(1.0015828,0.9984197)"
       aria-label="qwertaf&#10;asdfsad&#10;ukhykhg&#10;\zsdfg@">
      <path
         d="m 29.065136,38.788066 q 0,0.02379 -0.01427,0.04283 -0.01428,0.01903 -0.04758,0.03093 -0.03331,0.01428 -0.09041,0.02141 -0.0571,0.0071 -0.145127,0.0071 -0.08803,0 -0.145128,-0.0071 -0.0571,-0.0071 -0.09279,-0.02141 -0.03331,-0.01189 -0.04758,-0.03093 -0.0119,-0.01903 -0.0119,-0.04283 V 37.77931 q -0.08565,0.07851 -0.16654,0.137991 -0.08089,0.0571 -0.161781,0.09517 -0.08089,0.03569 -0.16654,0.05234 -0.08565,0.01665 -0.180815,0.01665 -0.233156,0 -0.397316,-0.09279 -0.164161,-0.09517 -0.268843,-0.254568 -0.102303,-0.159403 -0.149886,-0.371146 -0.04758,-0.214123 -0.04758,-0.449658 0,-0.283117 0.06186,-0.509136 0.06186,-0.226018 0.180814,-0.385421 0.118957,-0.159402 0.292635,-0.245051 0.173677,-0.08565 0.402074,-0.08565 0.08803,0 0.168919,0.01903 0.08089,0.01665 0.161782,0.06186 0.08089,0.04282 0.16654,0.114198 0.08803,0.06899 0.19271,0.171298 v -0.230776 q 0,-0.02379 0.0119,-0.04045 0.01428,-0.01903 0.04282,-0.03093 0.03093,-0.0119 0.07851,-0.01665 0.04758,-0.0071 0.123715,-0.0071 0.07137,0 0.118957,0.0071 0.04996,0.0048 0.07851,0.01665 0.02855,0.0119 0.04044,0.03093 0.0119,0.01665 0.0119,0.04045 z m -0.594785,-2.260184 q -0.128474,-0.161781 -0.247431,-0.24743 -0.116578,-0.08565 -0.245051,-0.08565 -0.116578,0 -0.202227,0.05948 -0.08327,0.0571 -0.135611,0.154644 -0.04996,0.09754 -0.07613,0.218881 -0.02379,0.118957 -0.02379,0.245052 0,0.133232 0.02141,0.261705 0.02141,0.126095 0.069,0.22364 0.04996,0.09754 0.130853,0.157023 0.08089,0.05948 0.204606,0.05948 0.06186,0 0.118957,-0.01665 0.05948,-0.01903 0.118957,-0.05948 0.06186,-0.04045 0.126095,-0.104682 0.06424,-0.06662 0.140369,-0.161782 z m 4.444235,-0.708983 q 0,0.02617 -0.0071,0.06424 -0.0071,0.03807 -0.02617,0.109441 l -0.566236,1.919966 q -0.0119,0.04045 -0.03093,0.06662 -0.01903,0.02379 -0.05948,0.03807 -0.03807,0.01427 -0.11182,0.01903 -0.07137,0.0048 -0.187952,0.0048 -0.116578,0 -0.190331,-0.0071 -0.07375,-0.0048 -0.116578,-0.01903 -0.04045,-0.01427 -0.05948,-0.03807 -0.01903,-0.02617 -0.02855,-0.06424 l -0.356871,-1.289494 -0.0048,-0.02141 -0.0048,0.02141 -0.328321,1.289494 q -0.0095,0.04045 -0.02855,0.06662 -0.01665,0.02379 -0.05948,0.03807 -0.04282,0.01427 -0.116578,0.01903 -0.07375,0.0048 -0.190332,0.0048 -0.118957,0 -0.19271,-0.0071 -0.07137,-0.0048 -0.114199,-0.01903 -0.04044,-0.01427 -0.05948,-0.03807 -0.01903,-0.02617 -0.02855,-0.06424 L 29.483811,35.99274 q -0.02141,-0.069 -0.02855,-0.107061 -0.0048,-0.04045 -0.0048,-0.06662 0,-0.02379 0.0119,-0.04045 0.01427,-0.01903 0.04758,-0.02855 0.03569,-0.0119 0.09279,-0.01665 0.05948,-0.0048 0.147507,-0.0048 0.09516,0 0.154644,0.0048 0.05948,0.0048 0.09279,0.01665 0.03331,0.0119 0.0452,0.03331 0.01428,0.01903 0.02141,0.04758 l 0.421108,1.558337 0.0048,0.02855 0.0048,-0.02855 0.394937,-1.558337 q 0.0071,-0.02855 0.02141,-0.04758 0.01665,-0.02141 0.04758,-0.03331 0.03093,-0.0119 0.08565,-0.01665 0.0571,-0.0048 0.145128,-0.0048 0.08803,0 0.142748,0.0071 0.05472,0.0048 0.08565,0.01665 0.03331,0.0095 0.0452,0.02855 0.01428,0.01665 0.02141,0.04045 l 0.423487,1.570232 0.0071,0.02617 0.0048,-0.02855 0.404454,-1.558337 q 0.0048,-0.02855 0.01903,-0.04758 0.01427,-0.02141 0.04758,-0.03331 0.03331,-0.0119 0.09041,-0.01665 0.0571,-0.0048 0.145128,-0.0048 0.08803,0 0.142748,0.0048 0.0571,0.0048 0.08803,0.01665 0.03331,0.0095 0.0452,0.02855 0.0119,0.01665 0.0119,0.04045 z m 2.305387,1.003997 q 0,0.10944 -0.04996,0.161781 -0.04758,0.05234 -0.133232,0.05234 h -1.291873 q 0,0.135611 0.03093,0.24743 0.03331,0.109441 0.102303,0.187952 0.07137,0.07613 0.180815,0.116578 0.111819,0.04045 0.266463,0.04045 0.157024,0 0.275981,-0.02141 0.118957,-0.02379 0.204606,-0.04996 0.08803,-0.02855 0.145127,-0.04996 0.0571,-0.02379 0.09279,-0.02379 0.02141,0 0.03569,0.0095 0.01427,0.0071 0.02379,0.02855 0.0095,0.02141 0.0119,0.06186 0.0048,0.03807 0.0048,0.09755 0,0.05234 -0.0024,0.09041 -0.0024,0.03569 -0.0071,0.06186 -0.0048,0.02617 -0.01427,0.0452 -0.0095,0.01665 -0.02617,0.03331 -0.01427,0.01665 -0.08327,0.0452 -0.069,0.02855 -0.176056,0.0571 -0.107061,0.02617 -0.245052,0.0452 -0.13799,0.02141 -0.295013,0.02141 -0.283118,0 -0.49724,-0.07137 -0.211744,-0.07137 -0.354492,-0.216502 -0.142749,-0.145127 -0.214123,-0.366387 -0.069,-0.22126 -0.069,-0.518653 0,-0.283118 0.07375,-0.509136 0.07375,-0.228398 0.214123,-0.385421 0.140369,-0.159402 0.340217,-0.242672 0.202227,-0.08327 0.454416,-0.08327 0.266464,0 0.454416,0.07851 0.190331,0.07851 0.311667,0.218881 0.121336,0.137991 0.178436,0.328322 0.0571,0.190331 0.0571,0.41397 z m -0.58051,-0.171298 q 0.0071,-0.252189 -0.102303,-0.394938 -0.107062,-0.145127 -0.33308,-0.145127 -0.114199,0 -0.199848,0.04282 -0.08327,0.04283 -0.140369,0.116578 -0.05472,0.07137 -0.08565,0.171298 -0.02855,0.09754 -0.03331,0.209365 z m 2.43624,-0.630472 q 0,0.08565 -0.0048,0.140369 -0.0048,0.05472 -0.01428,0.08565 -0.0095,0.03093 -0.02617,0.04282 -0.01427,0.0119 -0.03807,0.0119 -0.01903,0 -0.04282,-0.0071 -0.02379,-0.0095 -0.05472,-0.01903 -0.02855,-0.0095 -0.06424,-0.01665 -0.03569,-0.0095 -0.07851,-0.0095 -0.04996,0 -0.09992,0.02141 -0.04996,0.01903 -0.104682,0.06186 -0.05234,0.04282 -0.11182,0.114199 -0.0571,0.07137 -0.123715,0.176056 v 1.322802 q 0,0.02379 -0.01427,0.04283 -0.01428,0.01665 -0.04996,0.02855 -0.03331,0.0119 -0.09041,0.01665 -0.0571,0.0071 -0.145128,0.0071 -0.08803,0 -0.145127,-0.0071 -0.0571,-0.0048 -0.09279,-0.01665 -0.03331,-0.01189 -0.04758,-0.02855 -0.01427,-0.01903 -0.01427,-0.04283 v -2.122193 q 0,-0.02379 0.01189,-0.04045 0.0119,-0.01903 0.04283,-0.03093 0.03093,-0.0119 0.07851,-0.01665 0.04996,-0.0071 0.123716,-0.0071 0.07613,0 0.126094,0.0071 0.04996,0.0048 0.07613,0.01665 0.02855,0.0119 0.04044,0.03093 0.0119,0.01665 0.0119,0.04045 v 0.264084 q 0.08327,-0.118957 0.157023,-0.195089 0.07375,-0.07851 0.140369,-0.123715 0.06662,-0.0452 0.133232,-0.06186 0.06662,-0.01903 0.133232,-0.01903 0.03093,0 0.06662,0.0048 0.03569,0.0024 0.07375,0.0119 0.03807,0.0071 0.06662,0.01903 0.02855,0.0095 0.04045,0.02141 0.01427,0.0119 0.01903,0.02617 0.0071,0.01427 0.0119,0.04044 0.0048,0.02379 0.0071,0.07375 0.0024,0.04996 0.0024,0.135611 z m 1.624952,1.71536 q 0,0.104682 -0.01427,0.161781 -0.0119,0.05472 -0.03331,0.07851 -0.02141,0.02141 -0.06424,0.04044 -0.04045,0.01665 -0.09755,0.02855 -0.05472,0.01427 -0.121336,0.02141 -0.06424,0.0071 -0.130853,0.0071 -0.178435,0 -0.309288,-0.0452 -0.130853,-0.0452 -0.216502,-0.13799 -0.08565,-0.09517 -0.126094,-0.237914 -0.04045,-0.142748 -0.04045,-0.337838 v -1.087267 h -0.254568 q -0.0452,0 -0.069,-0.05472 -0.02379,-0.0571 -0.02379,-0.187953 0,-0.069 0.0048,-0.116577 0.0071,-0.04758 0.01903,-0.07375 0.0119,-0.02855 0.02855,-0.04044 0.01903,-0.0119 0.04282,-0.0119 h 0.252189 v -0.473449 q 0,-0.02379 0.0119,-0.04282 0.01428,-0.01903 0.04758,-0.03093 0.03569,-0.01427 0.09279,-0.01903 0.05948,-0.0071 0.145128,-0.0071 0.08803,0 0.145127,0.0071 0.05948,0.0048 0.09279,0.01903 0.03331,0.0119 0.04758,0.03093 0.01427,0.01903 0.01427,0.04282 v 0.473449 h 0.461553 q 0.02379,0 0.04044,0.0119 0.01903,0.01189 0.03093,0.04044 0.0119,0.02617 0.01665,0.07375 0.0071,0.04758 0.0071,0.116577 0,0.130853 -0.02379,0.187953 -0.02379,0.05472 -0.069,0.05472 h -0.463932 v 0.99686 q 0,0.173677 0.05472,0.261705 0.05472,0.08565 0.195089,0.08565 0.04758,0 0.08565,-0.0071 0.03807,-0.0095 0.06662,-0.01903 0.03093,-0.0119 0.04996,-0.01903 0.02141,-0.0095 0.03807,-0.0095 0.01427,0 0.02617,0.0095 0.01427,0.0071 0.02141,0.03331 0.0071,0.02379 0.0119,0.06662 0.0071,0.04283 0.0071,0.109441 z m 2.193568,0.216502 q 0,0.03331 -0.02379,0.05234 -0.02379,0.01903 -0.07613,0.02617 -0.04996,0.0095 -0.149885,0.0095 -0.107062,0 -0.157024,-0.0095 -0.04758,-0.0071 -0.069,-0.02617 -0.01903,-0.01903 -0.01903,-0.05234 v -0.168919 q -0.130853,0.140369 -0.299772,0.218881 -0.166539,0.07851 -0.371146,0.07851 -0.168919,0 -0.311667,-0.0452 -0.140369,-0.04282 -0.245051,-0.128474 -0.102303,-0.08803 -0.159403,-0.216502 -0.0571,-0.128473 -0.0571,-0.299772 0,-0.185572 0.07137,-0.321183 0.07375,-0.137991 0.216502,-0.226019 0.145127,-0.09041 0.35925,-0.133232 0.214123,-0.04282 0.49724,-0.04282 h 0.206986 v -0.128474 q 0,-0.09992 -0.02141,-0.173677 -0.01903,-0.07613 -0.06662,-0.126095 -0.0452,-0.04996 -0.123715,-0.07375 -0.07613,-0.02379 -0.190331,-0.02379 -0.149886,0 -0.268843,0.03331 -0.116578,0.03331 -0.206985,0.07375 -0.09041,0.04044 -0.152265,0.07375 -0.05948,0.03331 -0.09755,0.03331 -0.02617,0 -0.04758,-0.01665 -0.01903,-0.01665 -0.03331,-0.04758 -0.0119,-0.03093 -0.01903,-0.07613 -0.0071,-0.0452 -0.0071,-0.09992 0,-0.07375 0.0119,-0.116578 0.0119,-0.04282 0.0452,-0.07613 0.03331,-0.03569 0.116578,-0.07613 0.08327,-0.04282 0.195089,-0.07851 0.11182,-0.03569 0.242673,-0.0571 0.133232,-0.02379 0.273601,-0.02379 0.24981,0 0.425866,0.04996 0.178436,0.04758 0.292634,0.149886 0.114199,0.09992 0.16654,0.259326 0.05234,0.159402 0.05234,0.378283 z m -0.587647,-0.908832 h -0.228398 q -0.145127,0 -0.247431,0.02141 -0.102303,0.02141 -0.166539,0.06424 -0.06424,0.04283 -0.09517,0.104682 -0.02855,0.05948 -0.02855,0.13799 0,0.133232 0.08327,0.209365 0.08565,0.07613 0.235535,0.07613 0.126095,0 0.230777,-0.06424 0.107061,-0.06424 0.216502,-0.187952 z m 2.438619,-2.029407 q 0,0.069 -0.0048,0.11182 -0.0048,0.04044 -0.01427,0.06424 -0.0095,0.02141 -0.02141,0.03093 -0.0119,0.0071 -0.02617,0.0071 -0.01665,0 -0.03807,-0.0071 -0.01903,-0.0095 -0.04996,-0.01903 -0.02855,-0.0095 -0.069,-0.01665 -0.04045,-0.0095 -0.09517,-0.0095 -0.06424,0 -0.111819,0.02141 -0.0452,0.01903 -0.07613,0.06424 -0.03093,0.04282 -0.0452,0.114198 -0.01427,0.06899 -0.01427,0.171299 v 0.195089 h 0.387799 q 0.02141,0 0.03807,0.0119 0.01903,0.01189 0.03093,0.04044 0.01189,0.02617 0.01665,0.07375 0.0071,0.04758 0.0071,0.116577 0,0.130853 -0.02379,0.187953 -0.02379,0.05472 -0.069,0.05472 H 42.17896 v 1.717739 q 0,0.02379 -0.01427,0.04283 -0.01427,0.01665 -0.04758,0.02855 -0.03331,0.0119 -0.09279,0.01665 -0.05948,0.0071 -0.145127,0.0071 -0.08565,0 -0.145128,-0.0071 -0.0571,-0.0048 -0.09279,-0.01665 -0.03331,-0.01189 -0.04758,-0.02855 -0.0119,-0.01903 -0.0119,-0.04283 v -1.717739 h -0.266464 q -0.0452,0 -0.069,-0.05472 -0.02141,-0.0571 -0.02141,-0.187953 0,-0.069 0.0048,-0.116577 0.0071,-0.04758 0.01665,-0.07375 0.0119,-0.02855 0.02855,-0.04044 0.01903,-0.0119 0.04283,-0.0119 h 0.264084 V 35.56436 q 0,-0.216502 0.04283,-0.378284 0.04282,-0.164161 0.133232,-0.271222 0.09279,-0.10944 0.233155,-0.164161 0.142749,-0.05472 0.335459,-0.05472 0.09279,0 0.176057,0.01665 0.08327,0.01427 0.130852,0.03331 0.04758,0.01665 0.06424,0.03331 0.01665,0.01427 0.02617,0.0452 0.0119,0.02855 0.01665,0.07613 0.0048,0.0452 0.0048,0.114199 z"
         id="path1" />
      <path
         d="m 29.126994,44.043588 q 0,0.03331 -0.02379,0.05234 -0.02379,0.01903 -0.07613,0.02617 -0.04996,0.0095 -0.149886,0.0095 -0.107061,0 -0.157023,-0.0095 -0.04758,-0.0071 -0.069,-0.02617 -0.01903,-0.01903 -0.01903,-0.05234 v -0.168919 q -0.130853,0.140369 -0.299772,0.218881 -0.16654,0.07851 -0.371146,0.07851 -0.168919,0 -0.311668,-0.0452 -0.140369,-0.04282 -0.245051,-0.128473 -0.102303,-0.08803 -0.159402,-0.216502 -0.0571,-0.128473 -0.0571,-0.299772 0,-0.185573 0.07137,-0.321184 0.07375,-0.13799 0.216502,-0.226018 0.145128,-0.09041 0.35925,-0.133232 0.214123,-0.04282 0.497241,-0.04282 h 0.206985 v -0.128474 q 0,-0.09992 -0.02141,-0.173677 -0.01903,-0.07613 -0.06662,-0.126095 -0.0452,-0.04996 -0.123715,-0.07375 -0.07613,-0.02379 -0.190332,-0.02379 -0.149886,0 -0.268843,0.03331 -0.116577,0.03331 -0.206985,0.07375 -0.09041,0.04044 -0.152265,0.07375 -0.05948,0.03331 -0.09755,0.03331 -0.02617,0 -0.04758,-0.01665 -0.01903,-0.01665 -0.03331,-0.04758 -0.0119,-0.03093 -0.01903,-0.07613 -0.0071,-0.0452 -0.0071,-0.09992 0,-0.07375 0.0119,-0.116578 0.01189,-0.04282 0.0452,-0.07613 0.03331,-0.03569 0.116578,-0.07613 0.08327,-0.04282 0.19509,-0.07851 0.111819,-0.03569 0.242672,-0.0571 0.133232,-0.02379 0.273601,-0.02379 0.24981,0 0.425867,0.04996 0.178435,0.04758 0.292634,0.149886 0.114199,0.09992 0.16654,0.259326 0.05234,0.159402 0.05234,0.378283 z m -0.587648,-0.908832 h -0.228397 q -0.145128,0 -0.247431,0.02141 -0.102303,0.02141 -0.16654,0.06424 -0.06424,0.04282 -0.09517,0.104682 -0.02855,0.05948 -0.02855,0.13799 0,0.133232 0.08327,0.209365 0.08565,0.07613 0.235535,0.07613 0.126094,0 0.230776,-0.06424 0.107062,-0.06424 0.216502,-0.187952 z m 2.678912,0.302151 q 0,0.180814 -0.06899,0.318805 -0.06662,0.13799 -0.190331,0.230776 -0.123715,0.09279 -0.292634,0.13799 -0.168919,0.04758 -0.366388,0.04758 -0.118957,0 -0.228397,-0.01903 -0.107062,-0.01665 -0.192711,-0.04282 -0.08565,-0.02855 -0.142748,-0.0571 -0.0571,-0.02855 -0.08327,-0.05234 -0.02617,-0.02617 -0.04045,-0.07851 -0.01427,-0.05472 -0.01427,-0.159402 0,-0.069 0.0048,-0.10944 0.0048,-0.04283 0.01428,-0.06662 0.0095,-0.02617 0.02379,-0.03331 0.01428,-0.0095 0.03569,-0.0095 0.02617,0 0.07613,0.03093 0.05234,0.02855 0.128473,0.06424 0.07613,0.03569 0.176057,0.06662 0.102303,0.03093 0.230776,0.03093 0.08089,0 0.142749,-0.01665 0.06424,-0.01665 0.10944,-0.04758 0.04758,-0.03093 0.07137,-0.07851 0.02379,-0.04758 0.02379,-0.10944 0,-0.07138 -0.0452,-0.121337 -0.04282,-0.05234 -0.116578,-0.09041 -0.07137,-0.03807 -0.16416,-0.07137 -0.09041,-0.03331 -0.187952,-0.07375 -0.09517,-0.04044 -0.187953,-0.09279 -0.09041,-0.05234 -0.16416,-0.128474 -0.07137,-0.07613 -0.116578,-0.183193 -0.04283,-0.107062 -0.04283,-0.256948 0,-0.152265 0.05948,-0.278359 0.05948,-0.128474 0.171298,-0.218881 0.11182,-0.09041 0.271222,-0.140369 0.161782,-0.04996 0.361629,-0.04996 0.09992,0 0.192711,0.01427 0.09516,0.01427 0.171298,0.03569 0.07613,0.02141 0.128473,0.04758 0.05234,0.02379 0.07375,0.04283 0.02379,0.01665 0.03331,0.03569 0.0095,0.01665 0.01428,0.04283 0.0048,0.02379 0.0071,0.06186 0.0048,0.03569 0.0048,0.09041 0,0.06424 -0.0048,0.104682 -0.0024,0.04044 -0.0119,0.06424 -0.0071,0.02379 -0.02141,0.03331 -0.01428,0.0071 -0.03331,0.0071 -0.02141,0 -0.06662,-0.02379 -0.0452,-0.02617 -0.114199,-0.05472 -0.06662,-0.02855 -0.157023,-0.05234 -0.08803,-0.02617 -0.202227,-0.02617 -0.08089,0 -0.140369,0.01665 -0.05948,0.01665 -0.09755,0.04758 -0.03807,0.03093 -0.0571,0.07375 -0.01903,0.04044 -0.01903,0.08803 0,0.07375 0.0452,0.123715 0.0452,0.04996 0.118957,0.08803 0.07375,0.03807 0.16654,0.07137 0.09517,0.03331 0.190331,0.07375 0.09755,0.03807 0.190332,0.09041 0.09516,0.05234 0.168919,0.128473 0.07375,0.07613 0.118957,0.183194 0.0452,0.104682 0.0452,0.24981 z m 2.462411,0.599543 q 0,0.02617 -0.0119,0.0452 -0.0119,0.01665 -0.04044,0.02855 -0.02855,0.01189 -0.07851,0.01665 -0.04758,0.0048 -0.118957,0.0048 -0.07613,0 -0.123715,-0.0048 -0.04758,-0.0048 -0.07851,-0.01665 -0.02855,-0.0119 -0.04282,-0.02855 -0.0119,-0.01903 -0.0119,-0.0452 v -0.235535 q -0.164161,0.176057 -0.344975,0.273601 -0.178436,0.09754 -0.397317,0.09754 -0.242672,0 -0.411591,-0.09279 -0.16654,-0.09517 -0.273601,-0.254568 -0.104683,-0.159403 -0.152265,-0.371146 -0.04758,-0.214123 -0.04758,-0.449658 0,-0.283118 0.05948,-0.509136 0.06186,-0.226018 0.178436,-0.385421 0.116578,-0.159402 0.290255,-0.245051 0.173677,-0.08565 0.399696,-0.08565 0.178435,0 0.323563,0.07375 0.145127,0.07137 0.287876,0.211744 v -1.149125 q 0,-0.02379 0.0119,-0.04283 0.01427,-0.01903 0.04758,-0.03093 0.03569,-0.01428 0.09279,-0.02141 0.0571,-0.0071 0.145127,-0.0071 0.08803,0 0.145128,0.0071 0.0571,0.0071 0.09041,0.02141 0.03331,0.0119 0.04758,0.03093 0.01428,0.01903 0.01428,0.04283 z m -0.594785,-1.417968 q -0.128474,-0.161781 -0.247431,-0.24743 -0.116578,-0.08565 -0.245051,-0.08565 -0.116578,0 -0.202227,0.05948 -0.08327,0.0571 -0.135611,0.154644 -0.04996,0.09755 -0.07613,0.218881 -0.02379,0.118957 -0.02379,0.245052 0,0.133232 0.02141,0.259326 0.02141,0.126095 0.06899,0.226018 0.04996,0.09754 0.130853,0.157024 0.08089,0.05948 0.204606,0.05948 0.06186,0 0.118957,-0.01665 0.05948,-0.01903 0.118957,-0.05948 0.06186,-0.04045 0.126095,-0.104682 0.06424,-0.06662 0.140369,-0.161782 z m 2.476685,-1.513133 q 0,0.069 -0.0048,0.11182 -0.0048,0.04044 -0.01427,0.06424 -0.0095,0.02141 -0.02141,0.03093 -0.0119,0.0071 -0.02617,0.0071 -0.01665,0 -0.03807,-0.0071 -0.01903,-0.0095 -0.04996,-0.01903 -0.02855,-0.0095 -0.069,-0.01665 -0.04044,-0.0095 -0.09517,-0.0095 -0.06424,0 -0.111819,0.02141 -0.0452,0.01903 -0.07613,0.06424 -0.03093,0.04282 -0.0452,0.114198 -0.01428,0.069 -0.01428,0.171298 v 0.19509 h 0.3878 q 0.02141,0 0.03807,0.0119 0.01903,0.0119 0.03093,0.04044 0.0119,0.02617 0.01665,0.07375 0.0071,0.04758 0.0071,0.116578 0,0.130853 -0.02379,0.187952 -0.02379,0.05472 -0.06899,0.05472 h -0.3878 v 1.717739 q 0,0.02379 -0.01427,0.04283 -0.01427,0.01665 -0.04758,0.02855 -0.03331,0.0119 -0.09279,0.01665 -0.05948,0.0071 -0.145128,0.0071 -0.08565,0 -0.145128,-0.0071 -0.0571,-0.0048 -0.09279,-0.01665 -0.03331,-0.0119 -0.04758,-0.02855 -0.0119,-0.01903 -0.0119,-0.04283 v -1.717739 h -0.266463 q -0.0452,0 -0.069,-0.05472 -0.02141,-0.0571 -0.02141,-0.187952 0,-0.06899 0.0048,-0.116578 0.0071,-0.04758 0.01665,-0.07375 0.0119,-0.02855 0.02855,-0.04044 0.01903,-0.0119 0.04282,-0.0119 h 0.264084 V 41.65493 q 0,-0.216501 0.04283,-0.378283 0.04283,-0.164161 0.133232,-0.271222 0.09279,-0.10944 0.233156,-0.164161 0.142748,-0.05472 0.335458,-0.05472 0.09279,0 0.176057,0.01665 0.08327,0.01427 0.130853,0.03331 0.04758,0.01665 0.06424,0.03331 0.01665,0.01428 0.02617,0.0452 0.0119,0.02855 0.01665,0.07613 0.0048,0.0452 0.0048,0.114199 z m 1.708223,2.331558 q 0,0.180814 -0.069,0.318805 -0.06662,0.13799 -0.190331,0.230776 -0.123716,0.09279 -0.292635,0.13799 -0.168919,0.04758 -0.366387,0.04758 -0.118957,0 -0.228398,-0.01903 -0.107061,-0.01665 -0.19271,-0.04282 -0.08565,-0.02855 -0.142749,-0.0571 -0.0571,-0.02855 -0.08327,-0.05234 -0.02617,-0.02617 -0.04044,-0.07851 -0.01428,-0.05472 -0.01428,-0.159402 0,-0.069 0.0048,-0.10944 0.0048,-0.04283 0.01427,-0.06662 0.0095,-0.02617 0.02379,-0.03331 0.01428,-0.0095 0.03569,-0.0095 0.02617,0 0.07613,0.03093 0.05234,0.02855 0.128474,0.06424 0.07613,0.03569 0.176056,0.06662 0.102303,0.03093 0.230777,0.03093 0.08089,0 0.142748,-0.01665 0.06424,-0.01665 0.109441,-0.04758 0.04758,-0.03093 0.07137,-0.07851 0.02379,-0.04758 0.02379,-0.10944 0,-0.07138 -0.0452,-0.121337 -0.04283,-0.05234 -0.116578,-0.09041 -0.07137,-0.03807 -0.164161,-0.07137 -0.09041,-0.03331 -0.187952,-0.07375 -0.09517,-0.04044 -0.187952,-0.09279 -0.09041,-0.05234 -0.164161,-0.128474 -0.07137,-0.07613 -0.116578,-0.183193 -0.04282,-0.107062 -0.04282,-0.256948 0,-0.152265 0.05948,-0.278359 0.05948,-0.128474 0.171299,-0.218881 0.111819,-0.09041 0.271222,-0.140369 0.161781,-0.04996 0.361629,-0.04996 0.09992,0 0.19271,0.01427 0.09517,0.01427 0.171298,0.03569 0.07613,0.02141 0.128474,0.04758 0.05234,0.02379 0.07375,0.04283 0.02379,0.01665 0.03331,0.03569 0.0095,0.01665 0.01427,0.04283 0.0048,0.02379 0.0071,0.06186 0.0048,0.03569 0.0048,0.09041 0,0.06424 -0.0048,0.104682 -0.0024,0.04044 -0.0119,0.06424 -0.0071,0.02379 -0.02141,0.03331 -0.01427,0.0071 -0.03331,0.0071 -0.02141,0 -0.06662,-0.02379 -0.0452,-0.02617 -0.114199,-0.05472 -0.06662,-0.02855 -0.157023,-0.05234 -0.08803,-0.02617 -0.202227,-0.02617 -0.08089,0 -0.14037,0.01665 -0.05948,0.01665 -0.09754,0.04758 -0.03807,0.03093 -0.0571,0.07375 -0.01903,0.04044 -0.01903,0.08803 0,0.07375 0.0452,0.123715 0.0452,0.04996 0.118957,0.08803 0.07375,0.03807 0.16654,0.07137 0.09517,0.03331 0.190331,0.07375 0.09755,0.03807 0.190331,0.09041 0.09517,0.05234 0.168919,0.128473 0.07375,0.07613 0.118957,0.183194 0.0452,0.104682 0.0452,0.24981 z m 2.257805,0.606681 q 0,0.03331 -0.02379,0.05234 -0.02379,0.01903 -0.07613,0.02617 -0.04996,0.0095 -0.149886,0.0095 -0.107062,0 -0.157024,-0.0095 -0.04758,-0.0071 -0.069,-0.02617 -0.01903,-0.01903 -0.01903,-0.05234 v -0.168919 q -0.130852,0.140369 -0.299771,0.218881 -0.16654,0.07851 -0.371146,0.07851 -0.168919,0 -0.311668,-0.0452 -0.140369,-0.04282 -0.245051,-0.128473 -0.102303,-0.08803 -0.159403,-0.216502 -0.0571,-0.128473 -0.0571,-0.299772 0,-0.185573 0.07137,-0.321184 0.07375,-0.13799 0.216502,-0.226018 0.145128,-0.09041 0.35925,-0.133232 0.214123,-0.04282 0.497241,-0.04282 h 0.206985 v -0.128474 q 0,-0.09992 -0.02141,-0.173677 -0.01903,-0.07613 -0.06662,-0.126095 -0.0452,-0.04996 -0.123716,-0.07375 -0.07613,-0.02379 -0.190331,-0.02379 -0.149886,0 -0.268843,0.03331 -0.116578,0.03331 -0.206985,0.07375 -0.09041,0.04044 -0.152265,0.07375 -0.05948,0.03331 -0.09754,0.03331 -0.02617,0 -0.04758,-0.01665 -0.01903,-0.01665 -0.03331,-0.04758 -0.0119,-0.03093 -0.01903,-0.07613 -0.0071,-0.0452 -0.0071,-0.09992 0,-0.07375 0.0119,-0.116578 0.01189,-0.04282 0.0452,-0.07613 0.03331,-0.03569 0.116578,-0.07613 0.08327,-0.04282 0.19509,-0.07851 0.111819,-0.03569 0.242672,-0.0571 0.133232,-0.02379 0.273601,-0.02379 0.24981,0 0.425866,0.04996 0.178436,0.04758 0.292635,0.149886 0.114198,0.09992 0.166539,0.259326 0.05234,0.159402 0.05234,0.378283 z m -0.587648,-0.908832 h -0.228398 q -0.145127,0 -0.24743,0.02141 -0.102303,0.02141 -0.16654,0.06424 -0.06424,0.04282 -0.09517,0.104682 -0.02855,0.05948 -0.02855,0.13799 0,0.133232 0.08327,0.209365 0.08565,0.07613 0.235535,0.07613 0.126095,0 0.230777,-0.06424 0.107061,-0.06424 0.216502,-0.187952 z m 3.197564,0.901694 q 0,0.02617 -0.0119,0.0452 -0.0119,0.01665 -0.04045,0.02855 -0.02855,0.01189 -0.07851,0.01665 -0.04758,0.0048 -0.118958,0.0048 -0.07613,0 -0.123715,-0.0048 -0.04758,-0.0048 -0.07851,-0.01665 -0.02855,-0.0119 -0.04282,-0.02855 -0.0119,-0.01903 -0.0119,-0.0452 v -0.235535 q -0.16416,0.176057 -0.344975,0.273601 -0.178436,0.09754 -0.397317,0.09754 -0.242672,0 -0.411591,-0.09279 -0.16654,-0.09517 -0.273601,-0.254568 -0.104682,-0.159403 -0.152265,-0.371146 -0.04758,-0.214123 -0.04758,-0.449658 0,-0.283118 0.05948,-0.509136 0.06186,-0.226018 0.178435,-0.385421 0.116578,-0.159402 0.290255,-0.245051 0.173678,-0.08565 0.399696,-0.08565 0.178436,0 0.323563,0.07375 0.145128,0.07137 0.287876,0.211744 v -1.149125 q 0,-0.02379 0.0119,-0.04283 0.01427,-0.01903 0.04758,-0.03093 0.03569,-0.01428 0.09279,-0.02141 0.0571,-0.0071 0.145128,-0.0071 0.08803,0 0.145127,0.0071 0.0571,0.0071 0.09041,0.02141 0.03331,0.0119 0.04758,0.03093 0.01428,0.01903 0.01428,0.04283 z m -0.594785,-1.417968 q -0.128474,-0.161781 -0.247431,-0.24743 -0.116577,-0.08565 -0.245051,-0.08565 -0.116578,0 -0.202227,0.05948 -0.08327,0.0571 -0.135611,0.154644 -0.04996,0.09755 -0.07613,0.218881 -0.02379,0.118957 -0.02379,0.245052 0,0.133232 0.02141,0.259326 0.02141,0.126095 0.069,0.226018 0.04996,0.09754 0.130853,0.157024 0.08089,0.05948 0.204606,0.05948 0.06186,0 0.118957,-0.01665 0.05948,-0.01903 0.118957,-0.05948 0.06186,-0.04045 0.126095,-0.104682 0.06424,-0.06662 0.140369,-0.161782 z"
         id="path2" />
      <path
         d="m 28.516744,50.12705 q 0,0.02379 -0.01189,0.04283 -0.0119,0.01665 -0.04283,0.02855 -0.02855,0.0119 -0.07851,0.01665 -0.04758,0.0071 -0.121336,0.0071 -0.07851,0 -0.128473,-0.0071 -0.04758,-0.0048 -0.07613,-0.01665 -0.02855,-0.0119 -0.04044,-0.02855 -0.0119,-0.01903 -0.0119,-0.04283 v -0.245051 q -0.176056,0.190331 -0.35925,0.285496 -0.180815,0.09517 -0.375904,0.09517 -0.218881,0 -0.368767,-0.07137 -0.147507,-0.07137 -0.240293,-0.19509 -0.09041,-0.123715 -0.130853,-0.285497 -0.03807,-0.16416 -0.03807,-0.406833 v -1.29901 q 0,-0.02379 0.01189,-0.04045 0.01428,-0.01903 0.04758,-0.03093 0.03569,-0.01189 0.09279,-0.01665 0.05948,-0.0071 0.145127,-0.0071 0.08803,0 0.145128,0.0071 0.0571,0.0048 0.09041,0.01665 0.03569,0.0119 0.04996,0.03093 0.01427,0.01665 0.01427,0.04045 v 1.199086 q 0,0.16654 0.02141,0.254569 0.02141,0.08803 0.06424,0.152265 0.0452,0.06186 0.11182,0.09754 0.06899,0.03331 0.159402,0.03331 0.114199,0 0.228397,-0.08327 0.116578,-0.08327 0.247431,-0.242672 v -1.41083 q 0,-0.02379 0.0119,-0.04045 0.01427,-0.01903 0.04758,-0.03093 0.03569,-0.01189 0.09279,-0.01665 0.0571,-0.0071 0.145128,-0.0071 0.08803,0 0.145127,0.0071 0.0571,0.0048 0.09041,0.01665 0.03331,0.0119 0.04758,0.03093 0.01427,0.01665 0.01427,0.04045 z m 2.57423,0.0024 q 0,0.02379 -0.01427,0.04283 -0.0119,0.01665 -0.04758,0.02855 -0.03331,0.0095 -0.09279,0.01427 -0.05948,0.0071 -0.154644,0.0071 -0.09755,0 -0.159402,-0.0048 -0.05948,-0.0048 -0.09992,-0.01427 -0.03807,-0.0119 -0.05948,-0.03093 -0.02141,-0.01903 -0.03807,-0.04996 L 29.71821,49.004096 v 1.122954 q 0,0.02379 -0.01427,0.04283 -0.01427,0.01665 -0.04996,0.02855 -0.03331,0.0119 -0.09041,0.01665 -0.0571,0.0071 -0.145127,0.0071 -0.08803,0 -0.145128,-0.0071 -0.0571,-0.0048 -0.09279,-0.01665 -0.03331,-0.0119 -0.04758,-0.02855 -0.01428,-0.01903 -0.01428,-0.04283 v -3.12857 q 0,-0.02379 0.01428,-0.04282 0.01427,-0.01903 0.04758,-0.03093 0.03569,-0.01427 0.09279,-0.02141 0.0571,-0.0071 0.145128,-0.0071 0.08803,0 0.145127,0.0071 0.0571,0.0071 0.09041,0.02141 0.03569,0.0119 0.04996,0.03093 0.01427,0.01903 0.01427,0.04282 v 1.862867 l 0.628093,-0.844595 q 0.01903,-0.02855 0.04283,-0.04996 0.02379,-0.02141 0.06186,-0.03331 0.04044,-0.01189 0.09754,-0.01665 0.05948,-0.0071 0.149886,-0.0071 0.08803,0 0.147507,0.0071 0.06186,0.0048 0.09755,0.01665 0.03807,0.0119 0.05234,0.03093 0.01427,0.01665 0.01427,0.04283 0,0.03569 -0.01903,0.07613 -0.01665,0.04045 -0.05234,0.08565 l -0.620955,0.704226 0.7185,1.111059 q 0.02855,0.04758 0.04045,0.08327 0.01427,0.03331 0.01427,0.06186 z m 2.393416,-0.0024 q 0,0.02379 -0.01427,0.04283 -0.01427,0.01665 -0.04758,0.02855 -0.03331,0.0119 -0.09279,0.01665 -0.0571,0.0071 -0.142748,0.0071 -0.08803,0 -0.147507,-0.0071 -0.0571,-0.0048 -0.09041,-0.01665 -0.03331,-0.0119 -0.04758,-0.02855 -0.01428,-0.01903 -0.01428,-0.04283 v -1.210983 q 0,-0.154644 -0.02379,-0.242672 -0.02141,-0.08803 -0.06424,-0.149886 -0.04282,-0.06424 -0.11182,-0.09754 -0.06662,-0.03569 -0.157023,-0.03569 -0.114199,0 -0.230777,0.08327 -0.116578,0.08327 -0.242672,0.242673 v 1.41083 q 0,0.02379 -0.01427,0.04283 -0.01427,0.01665 -0.04996,0.02855 -0.03331,0.0119 -0.09041,0.01665 -0.0571,0.0071 -0.145128,0.0071 -0.08803,0 -0.145128,-0.0071 -0.0571,-0.0048 -0.09279,-0.01665 -0.03331,-0.0119 -0.04758,-0.02855 -0.01428,-0.01903 -0.01428,-0.04283 v -3.12857 q 0,-0.02379 0.01428,-0.04282 0.01427,-0.01903 0.04758,-0.03093 0.03569,-0.01427 0.09279,-0.02141 0.0571,-0.0071 0.145128,-0.0071 0.08803,0 0.145128,0.0071 0.0571,0.0071 0.09041,0.02141 0.03569,0.0119 0.04996,0.03093 0.01427,0.01903 0.01427,0.04282 v 1.172916 q 0.154644,-0.152265 0.314046,-0.226018 0.161782,-0.07613 0.335459,-0.07613 0.216502,0 0.364009,0.07137 0.149885,0.07137 0.240293,0.195089 0.09279,0.123716 0.133232,0.290256 0.04044,0.16416 0.04044,0.399695 z m 1.729635,0.08089 -0.256947,0.751808 q -0.02141,0.05948 -0.116578,0.08565 -0.09517,0.02617 -0.278359,0.02617 -0.09517,0 -0.152265,-0.0095 -0.0571,-0.0071 -0.08565,-0.02617 -0.02855,-0.01903 -0.03093,-0.04758 -0.0024,-0.02855 0.01427,-0.069 l 0.283117,-0.711363 q -0.03093,-0.01427 -0.0571,-0.04283 -0.02379,-0.03093 -0.03569,-0.06424 L 33.767497,48.14999 q -0.03093,-0.08327 -0.03093,-0.126094 0,-0.0452 0.02855,-0.069 0.02855,-0.02617 0.09517,-0.03569 0.06899,-0.0095 0.180815,-0.0095 0.102303,0 0.161781,0.0048 0.05948,0.0024 0.09279,0.01665 0.03331,0.01427 0.04996,0.0452 0.01665,0.02855 0.03331,0.08327 l 0.499619,1.420347 h 0.0071 l 0.456795,-1.448897 q 0.01428,-0.06186 0.03569,-0.08089 0.02379,-0.02141 0.07613,-0.03093 0.05234,-0.0095 0.183194,-0.0095 0.102303,0 0.168919,0.0095 0.06899,0.0095 0.09992,0.03569 0.03331,0.02617 0.03331,0.07137 0,0.04282 -0.01903,0.102303 z m 3.050058,-0.07851 q 0,0.02379 -0.01427,0.04283 -0.0119,0.01665 -0.04758,0.02855 -0.03331,0.0095 -0.09279,0.01427 -0.05948,0.0071 -0.154644,0.0071 -0.09754,0 -0.159402,-0.0048 -0.05948,-0.0048 -0.09992,-0.01427 -0.03807,-0.0119 -0.05948,-0.03093 -0.02141,-0.01903 -0.03807,-0.04996 l -0.706605,-1.118196 v 1.122954 q 0,0.02379 -0.01428,0.04283 -0.01427,0.01665 -0.04996,0.02855 -0.03331,0.0119 -0.09041,0.01665 -0.0571,0.0071 -0.145127,0.0071 -0.08803,0 -0.145128,-0.0071 -0.0571,-0.0048 -0.09279,-0.01665 -0.03331,-0.0119 -0.04758,-0.02855 -0.01427,-0.01903 -0.01427,-0.04283 v -3.12857 q 0,-0.02379 0.01427,-0.04282 0.01428,-0.01903 0.04758,-0.03093 0.03569,-0.01427 0.09279,-0.02141 0.0571,-0.0071 0.145128,-0.0071 0.08803,0 0.145127,0.0071 0.0571,0.0071 0.09041,0.02141 0.03569,0.0119 0.04996,0.03093 0.01428,0.01903 0.01428,0.04282 v 1.862867 l 0.628093,-0.844595 q 0.01903,-0.02855 0.04283,-0.04996 0.02379,-0.02141 0.06186,-0.03331 0.04045,-0.01189 0.09754,-0.01665 0.05948,-0.0071 0.149886,-0.0071 0.08803,0 0.147507,0.0071 0.06186,0.0048 0.09754,0.01665 0.03807,0.0119 0.05234,0.03093 0.01428,0.01665 0.01428,0.04283 0,0.03569 -0.01903,0.07613 -0.01665,0.04045 -0.05234,0.08565 l -0.620955,0.704226 0.7185,1.111059 q 0.02855,0.04758 0.04045,0.08327 0.01427,0.03331 0.01427,0.06186 z m 2.393416,-0.0024 q 0,0.02379 -0.01428,0.04283 -0.01427,0.01665 -0.04758,0.02855 -0.03331,0.0119 -0.09279,0.01665 -0.0571,0.0071 -0.142748,0.0071 -0.08803,0 -0.147507,-0.0071 -0.0571,-0.0048 -0.09041,-0.01665 -0.03331,-0.0119 -0.04758,-0.02855 -0.01427,-0.01903 -0.01427,-0.04283 v -1.210983 q 0,-0.154644 -0.02379,-0.242672 -0.02141,-0.08803 -0.06424,-0.149886 -0.04283,-0.06424 -0.11182,-0.09754 -0.06662,-0.03569 -0.157023,-0.03569 -0.114199,0 -0.230777,0.08327 -0.116578,0.08327 -0.242672,0.242673 v 1.41083 q 0,0.02379 -0.01428,0.04283 -0.01427,0.01665 -0.04996,0.02855 -0.03331,0.0119 -0.09041,0.01665 -0.0571,0.0071 -0.145128,0.0071 -0.08803,0 -0.145127,-0.0071 -0.0571,-0.0048 -0.09279,-0.01665 -0.03331,-0.0119 -0.04758,-0.02855 -0.01427,-0.01903 -0.01427,-0.04283 v -3.12857 q 0,-0.02379 0.01427,-0.04282 0.01428,-0.01903 0.04758,-0.03093 0.03569,-0.01427 0.09279,-0.02141 0.0571,-0.0071 0.145127,-0.0071 0.08803,0 0.145128,0.0071 0.0571,0.0071 0.09041,0.02141 0.03569,0.0119 0.04996,0.03093 0.01428,0.01903 0.01428,0.04282 v 1.172916 q 0.154644,-0.152265 0.314046,-0.226018 0.161782,-0.07613 0.335459,-0.07613 0.216502,0 0.364009,0.07137 0.149886,0.07137 0.240293,0.195089 0.09279,0.123716 0.133232,0.290256 0.04044,0.16416 0.04044,0.399695 z m 2.500477,-1.974687 q 0,0.114199 -0.02617,0.168919 -0.02617,0.05472 -0.06424,0.05472 h -0.24981 q 0.05234,0.0571 0.07375,0.130852 0.02379,0.07137 0.02379,0.149886 0,0.185573 -0.06186,0.330701 -0.06186,0.142748 -0.178436,0.242672 -0.114198,0.09754 -0.278359,0.149886 -0.161782,0.04996 -0.361629,0.04996 -0.102303,0 -0.19509,-0.02379 -0.09279,-0.02617 -0.142748,-0.05948 -0.02855,0.03093 -0.05234,0.07375 -0.02141,0.04283 -0.02141,0.09517 0,0.069 0.05948,0.114199 0.06186,0.04282 0.171298,0.04758 l 0.516273,0.01903 q 0.180815,0.0071 0.321184,0.05234 0.142749,0.04282 0.237914,0.123715 0.09755,0.07851 0.147507,0.190331 0.05234,0.11182 0.05234,0.254568 0,0.157024 -0.069,0.295014 -0.069,0.140369 -0.206985,0.242672 -0.13799,0.102303 -0.347355,0.161782 -0.206985,0.05948 -0.485344,0.05948 -0.271222,0 -0.463933,-0.04282 -0.190331,-0.04283 -0.314046,-0.118957 -0.121336,-0.07613 -0.178436,-0.183194 -0.05472,-0.104682 -0.05472,-0.230777 0,-0.07851 0.01903,-0.149886 0.02141,-0.07137 0.05948,-0.13799 0.04044,-0.06424 0.09754,-0.123715 0.0571,-0.05948 0.130853,-0.114199 -0.102303,-0.05472 -0.159402,-0.147507 -0.05472,-0.09517 -0.05472,-0.206985 0,-0.140369 0.06424,-0.254568 0.06424,-0.116578 0.16654,-0.209364 -0.08327,-0.08327 -0.133232,-0.199848 -0.04996,-0.116578 -0.04996,-0.290255 0,-0.185573 0.06424,-0.330701 0.06662,-0.147507 0.183194,-0.24743 0.116578,-0.102303 0.278359,-0.154645 0.161782,-0.05472 0.356871,-0.05472 0.09992,0 0.190332,0.0119 0.09279,0.0119 0.171298,0.03331 h 0.673297 q 0.04044,0 0.06424,0.05234 0.02617,0.05234 0.02617,0.176056 z m -0.768462,0.501999 q 0,-0.171298 -0.09517,-0.266464 -0.09517,-0.09517 -0.268843,-0.09517 -0.08803,0 -0.154644,0.03093 -0.06662,0.02855 -0.11182,0.08089 -0.04282,0.04996 -0.06424,0.118957 -0.02141,0.06662 -0.02141,0.14037 0,0.161781 0.09517,0.256947 0.09517,0.09279 0.264084,0.09279 0.09041,0 0.157024,-0.02855 0.06662,-0.02855 0.10944,-0.07851 0.0452,-0.04996 0.06662,-0.114199 0.02379,-0.06662 0.02379,-0.13799 z m 0.140369,1.693948 q 0,-0.107061 -0.08565,-0.164161 -0.08565,-0.0571 -0.235535,-0.06186 l -0.425866,-0.0119 q -0.06186,0.0452 -0.09992,0.08803 -0.03569,0.04045 -0.05948,0.07851 -0.02141,0.03807 -0.02855,0.07375 -0.0071,0.03569 -0.0071,0.07375 0,0.118957 0.118957,0.180814 0.121336,0.06186 0.340217,0.06186 0.135611,0 0.228398,-0.02855 0.09279,-0.02617 0.149886,-0.07137 0.0571,-0.0452 0.08089,-0.102303 0.02379,-0.05472 0.02379,-0.116578 z"
         id="path3" />
      <path
         d="m 28.450128,56.817193 q 0.01903,0.05948 0.02141,0.09517 0.0024,0.03807 -0.02617,0.05472 -0.02617,0.01665 -0.08565,0.02141 -0.05948,0.0071 -0.164161,0.0071 -0.09517,0 -0.154644,-0.0048 -0.0571,-0.0048 -0.09041,-0.01427 -0.03331,-0.0095 -0.04758,-0.02855 -0.01428,-0.01665 -0.02617,-0.04282 L 26.482579,52.97726 q -0.02141,-0.06186 -0.02379,-0.09754 -0.0024,-0.03569 0.02379,-0.05234 0.02855,-0.01665 0.08803,-0.02141 0.05948,-0.0071 0.164161,-0.0071 0.09517,0 0.152265,0.0048 0.05948,0.0048 0.09279,0.01427 0.03331,0.0095 0.04758,0.02855 0.01428,0.01665 0.02379,0.04282 z m 1.817664,-0.763704 q 0,0.069 -0.0071,0.118957 -0.0071,0.04758 -0.01903,0.07613 -0.0119,0.02855 -0.03093,0.04044 -0.01903,0.0095 -0.04282,0.0095 h -1.387039 q -0.06424,0 -0.09992,-0.04283 -0.03331,-0.04282 -0.03331,-0.140369 v -0.109441 q 0,-0.04282 0.0024,-0.07613 0.0048,-0.03569 0.01428,-0.06662 0.0119,-0.03331 0.02855,-0.06662 0.01903,-0.03331 0.04758,-0.07375 l 0.794633,-1.227637 h -0.751808 q -0.0452,0 -0.07375,-0.0571 -0.02617,-0.0571 -0.02617,-0.183194 0,-0.069 0.0048,-0.114199 0.0071,-0.04758 0.01903,-0.07375 0.0119,-0.02855 0.03093,-0.04045 0.01903,-0.01189 0.0452,-0.01189 h 1.296632 q 0.03331,0 0.0571,0.0071 0.02379,0.0071 0.03807,0.02617 0.01665,0.01903 0.02379,0.05234 0.0095,0.03331 0.0095,0.08327 v 0.116578 q 0,0.04758 -0.0048,0.08565 -0.0048,0.03569 -0.01428,0.069 -0.0095,0.03331 -0.02855,0.06662 -0.01665,0.03331 -0.04045,0.07137 l -0.789875,1.225257 h 0.837458 q 0.02141,0 0.04045,0.0095 0.01903,0.0095 0.03093,0.03569 0.01427,0.02617 0.02141,0.07375 0.0071,0.0452 0.0071,0.116578 z m 1.903312,-0.435382 q 0,0.180814 -0.069,0.318804 -0.06662,0.13799 -0.190331,0.230777 -0.123715,0.09279 -0.292634,0.13799 -0.168919,0.04758 -0.366388,0.04758 -0.118957,0 -0.228398,-0.01903 -0.107061,-0.01665 -0.19271,-0.04283 -0.08565,-0.02855 -0.142748,-0.0571 -0.0571,-0.02855 -0.08327,-0.05234 -0.02617,-0.02617 -0.04045,-0.07851 -0.01427,-0.05472 -0.01427,-0.159402 0,-0.069 0.0048,-0.109441 0.0048,-0.04282 0.01427,-0.06662 0.0095,-0.02617 0.02379,-0.03331 0.01427,-0.0095 0.03569,-0.0095 0.02617,0 0.07613,0.03093 0.05234,0.02855 0.128473,0.06424 0.07613,0.03569 0.176057,0.06662 0.102303,0.03093 0.230776,0.03093 0.08089,0 0.142749,-0.01665 0.06424,-0.01665 0.10944,-0.04758 0.04758,-0.03093 0.07137,-0.07851 0.02379,-0.04758 0.02379,-0.109441 0,-0.07137 -0.0452,-0.121336 -0.04282,-0.05234 -0.116578,-0.09041 -0.07137,-0.03807 -0.164161,-0.07137 -0.09041,-0.03331 -0.187952,-0.07375 -0.09517,-0.04045 -0.187952,-0.09279 -0.09041,-0.05234 -0.16416,-0.128474 -0.07137,-0.07613 -0.116578,-0.183194 -0.04283,-0.107061 -0.04283,-0.256947 0,-0.152265 0.05948,-0.278359 0.05948,-0.128474 0.171298,-0.218881 0.111819,-0.09041 0.271222,-0.14037 0.161781,-0.04996 0.361629,-0.04996 0.09992,0 0.192711,0.01427 0.09517,0.01427 0.171298,0.03569 0.07613,0.02141 0.128473,0.04758 0.05234,0.02379 0.07375,0.04283 0.02379,0.01665 0.03331,0.03569 0.0095,0.01665 0.01427,0.04282 0.0048,0.02379 0.0071,0.06186 0.0048,0.03569 0.0048,0.09041 0,0.06424 -0.0048,0.104683 -0.0024,0.04044 -0.0119,0.06424 -0.0071,0.02379 -0.02141,0.03331 -0.01427,0.0071 -0.03331,0.0071 -0.02141,0 -0.06662,-0.02379 -0.0452,-0.02617 -0.114199,-0.05472 -0.06662,-0.02855 -0.157023,-0.05234 -0.08803,-0.02617 -0.202227,-0.02617 -0.08089,0 -0.140369,0.01665 -0.05948,0.01665 -0.09755,0.04758 -0.03807,0.03093 -0.0571,0.07375 -0.01903,0.04044 -0.01903,0.08803 0,0.07375 0.0452,0.123715 0.0452,0.04996 0.118957,0.08803 0.07375,0.03807 0.16654,0.07137 0.09517,0.03331 0.190331,0.07375 0.09755,0.03807 0.190331,0.09041 0.09517,0.05234 0.168919,0.128474 0.07375,0.07613 0.118957,0.183194 0.0452,0.104682 0.0452,0.24981 z m 2.46241,0.599543 q 0,0.02617 -0.01189,0.0452 -0.0119,0.01665 -0.04045,0.02855 -0.02855,0.0119 -0.07851,0.01665 -0.04758,0.0048 -0.118957,0.0048 -0.07613,0 -0.123716,-0.0048 -0.04758,-0.0048 -0.07851,-0.01665 -0.02855,-0.0119 -0.04283,-0.02855 -0.0119,-0.01903 -0.0119,-0.0452 v -0.235535 q -0.16416,0.176056 -0.344975,0.273601 -0.178436,0.09755 -0.397316,0.09755 -0.242673,0 -0.411592,-0.09279 -0.16654,-0.09517 -0.273601,-0.254568 -0.104682,-0.159402 -0.152265,-0.371146 -0.04758,-0.214122 -0.04758,-0.449657 0,-0.283118 0.05948,-0.509136 0.06186,-0.226019 0.178435,-0.385421 0.116578,-0.159402 0.290255,-0.245051 0.173678,-0.08565 0.399696,-0.08565 0.178436,0 0.323563,0.07375 0.145128,0.07137 0.287876,0.211743 v -1.149125 q 0,-0.02379 0.0119,-0.04282 0.01428,-0.01903 0.04758,-0.03093 0.03569,-0.01427 0.09279,-0.02141 0.0571,-0.0071 0.145128,-0.0071 0.08803,0 0.145127,0.0071 0.0571,0.0071 0.09041,0.02141 0.03331,0.0119 0.04758,0.03093 0.01427,0.01903 0.01427,0.04282 z m -0.594785,-1.417968 q -0.128473,-0.161781 -0.24743,-0.24743 -0.116578,-0.08565 -0.245052,-0.08565 -0.116578,0 -0.202227,0.05948 -0.08327,0.0571 -0.135611,0.154644 -0.04996,0.09754 -0.07613,0.218881 -0.02379,0.118957 -0.02379,0.245052 0,0.133231 0.02141,0.259326 0.02141,0.126094 0.069,0.226018 0.04996,0.09755 0.130852,0.157023 0.08089,0.05948 0.204606,0.05948 0.06186,0 0.118957,-0.01665 0.05948,-0.01903 0.118957,-0.05948 0.06186,-0.04045 0.126095,-0.104683 0.06424,-0.06662 0.140369,-0.161781 z m 2.476686,-1.513133 q 0,0.069 -0.0048,0.111819 -0.0048,0.04045 -0.01427,0.06424 -0.0095,0.02141 -0.02141,0.03093 -0.0119,0.0071 -0.02617,0.0071 -0.01665,0 -0.03807,-0.0071 -0.01903,-0.0095 -0.04996,-0.01903 -0.02855,-0.0095 -0.069,-0.01665 -0.04044,-0.0095 -0.09517,-0.0095 -0.06424,0 -0.11182,0.02141 -0.0452,0.01903 -0.07613,0.06424 -0.03093,0.04283 -0.0452,0.114199 -0.01427,0.069 -0.01427,0.171298 v 0.19509 h 0.3878 q 0.02141,0 0.03807,0.01189 0.01903,0.0119 0.03093,0.04045 0.0119,0.02617 0.01665,0.07375 0.0071,0.04758 0.0071,0.116578 0,0.130853 -0.02379,0.187952 -0.02379,0.05472 -0.069,0.05472 h -0.3878 v 1.71774 q 0,0.02379 -0.01427,0.04282 -0.01428,0.01665 -0.04758,0.02855 -0.03331,0.0119 -0.09279,0.01665 -0.05948,0.0071 -0.145128,0.0071 -0.08565,0 -0.145127,-0.0071 -0.0571,-0.0048 -0.09279,-0.01665 -0.03331,-0.0119 -0.04758,-0.02855 -0.0119,-0.01903 -0.0119,-0.04282 v -1.71774 h -0.266464 q -0.0452,0 -0.069,-0.05472 -0.02141,-0.0571 -0.02141,-0.187952 0,-0.069 0.0048,-0.116578 0.0071,-0.04758 0.01665,-0.07375 0.0119,-0.02855 0.02855,-0.04045 0.01903,-0.01189 0.04282,-0.01189 h 0.264085 V 53.83613 q 0,-0.216502 0.04282,-0.378283 0.04283,-0.164161 0.133232,-0.271222 0.09279,-0.109441 0.233156,-0.164161 0.142748,-0.05472 0.335459,-0.05472 0.09279,0 0.176056,0.01665 0.08327,0.01427 0.130853,0.03331 0.04758,0.01665 0.06424,0.03331 0.01665,0.01427 0.02617,0.0452 0.0119,0.02855 0.01665,0.07613 0.0048,0.0452 0.0048,0.114199 z m 2.079369,0.956414 q 0,0.114199 -0.02617,0.168919 -0.02617,0.05472 -0.06424,0.05472 h -0.24981 q 0.05234,0.0571 0.07375,0.130853 0.02379,0.07137 0.02379,0.149886 0,0.185573 -0.06186,0.330701 -0.06186,0.142748 -0.178436,0.242672 -0.114198,0.09754 -0.278359,0.149886 -0.161782,0.04996 -0.361629,0.04996 -0.102303,0 -0.19509,-0.02379 -0.09279,-0.02617 -0.142748,-0.05948 -0.02855,0.03093 -0.05234,0.07375 -0.02141,0.04283 -0.02141,0.09517 0,0.069 0.05948,0.114199 0.06186,0.04282 0.171298,0.04758 l 0.516273,0.01903 q 0.180815,0.0071 0.321184,0.05234 0.142749,0.04282 0.237914,0.123715 0.09755,0.07851 0.147507,0.190331 0.05234,0.11182 0.05234,0.254568 0,0.157023 -0.069,0.295014 -0.069,0.140369 -0.206985,0.242672 -0.13799,0.102303 -0.347355,0.161782 -0.206985,0.05948 -0.485344,0.05948 -0.271222,0 -0.463933,-0.04283 -0.190331,-0.04282 -0.314046,-0.118957 -0.121336,-0.07613 -0.178436,-0.183193 -0.05472,-0.104683 -0.05472,-0.230777 0,-0.07851 0.01903,-0.149886 0.02141,-0.07137 0.05948,-0.13799 0.04044,-0.06424 0.09754,-0.123715 0.0571,-0.05948 0.130853,-0.114199 -0.102303,-0.05472 -0.159402,-0.147507 -0.05472,-0.09517 -0.05472,-0.206985 0,-0.140369 0.06424,-0.254568 0.06424,-0.116578 0.16654,-0.209364 -0.08327,-0.08327 -0.133232,-0.199848 -0.04996,-0.116578 -0.04996,-0.290255 0,-0.185573 0.06424,-0.330701 0.06662,-0.147507 0.183194,-0.247431 0.116578,-0.102303 0.278359,-0.154644 0.161782,-0.05472 0.356871,-0.05472 0.09992,0 0.190332,0.0119 0.09279,0.0119 0.171298,0.03331 h 0.673297 q 0.04045,0 0.06424,0.05234 0.02617,0.05234 0.02617,0.176056 z m -0.768463,0.501999 q 0,-0.171298 -0.09517,-0.266464 -0.09517,-0.09517 -0.268843,-0.09517 -0.08803,0 -0.154644,0.03093 -0.06662,0.02855 -0.11182,0.08089 -0.04282,0.04996 -0.06424,0.118957 -0.02141,0.06662 -0.02141,0.140369 0,0.161782 0.09517,0.256948 0.09517,0.09279 0.264084,0.09279 0.09041,0 0.157024,-0.02855 0.06662,-0.02855 0.10944,-0.07851 0.0452,-0.04996 0.06662,-0.114199 0.02379,-0.06662 0.02379,-0.13799 z m 0.14037,1.693948 q 0,-0.107061 -0.08565,-0.164161 -0.08565,-0.0571 -0.235535,-0.06186 l -0.425866,-0.0119 q -0.06186,0.0452 -0.09992,0.08803 -0.03569,0.04045 -0.05948,0.07851 -0.02141,0.03807 -0.02855,0.07375 -0.0071,0.03569 -0.0071,0.07375 0,0.118957 0.118957,0.180814 0.121336,0.06186 0.340217,0.06186 0.135611,0 0.228398,-0.02855 0.09279,-0.02617 0.149886,-0.07137 0.0571,-0.0452 0.08089,-0.102303 0.02379,-0.05472 0.02379,-0.116578 z m 4.796347,-1.969928 q 0,0.173677 -0.02379,0.352112 -0.02379,0.176057 -0.07851,0.340218 -0.05234,0.161781 -0.135611,0.30453 -0.08327,0.142748 -0.202227,0.24743 -0.116578,0.104682 -0.271222,0.16654 -0.154644,0.05948 -0.349734,0.05948 -0.116578,0 -0.211743,-0.02141 -0.09517,-0.02379 -0.16654,-0.06662 -0.07137,-0.0452 -0.118957,-0.10944 -0.0452,-0.06662 -0.069,-0.152265 -0.09279,0.09517 -0.183194,0.161781 -0.08803,0.06424 -0.176056,0.107062 -0.08565,0.04282 -0.171298,0.06186 -0.08565,0.01903 -0.173678,0.01903 -0.111819,0 -0.197468,-0.02617 -0.08565,-0.02855 -0.149886,-0.07613 -0.06186,-0.04758 -0.104682,-0.10944 -0.04045,-0.06424 -0.06662,-0.140369 -0.02617,-0.07613 -0.03807,-0.159403 -0.0095,-0.08327 -0.0095,-0.168919 0,-0.111819 0.01665,-0.249809 0.01903,-0.137991 0.05948,-0.280739 0.04283,-0.145128 0.11182,-0.27836 0.069,-0.135611 0.171298,-0.240293 0.102303,-0.107061 0.237914,-0.171298 0.13799,-0.06424 0.316426,-0.06424 0.08089,0 0.149886,0.01665 0.06899,0.01665 0.133232,0.05234 0.06424,0.03569 0.123715,0.09279 0.06186,0.0571 0.128473,0.140369 l 0.04045,-0.183194 q 0.0095,-0.04282 0.0571,-0.06424 0.04996,-0.02141 0.173677,-0.02141 0.06186,0 0.102304,0.0071 0.04282,0.0048 0.06662,0.01665 0.02379,0.0095 0.03093,0.02617 0.0071,0.01428 0.0048,0.03569 l -0.204607,1.063476 q -0.03331,0.176057 0.0095,0.259327 0.0452,0.08089 0.173677,0.08089 0.08327,0 0.152265,-0.0452 0.069,-0.0452 0.118957,-0.121337 0.05234,-0.07851 0.08803,-0.178435 0.03569,-0.102303 0.0571,-0.211744 0.02379,-0.111819 0.03331,-0.223639 0.0119,-0.114199 0.0119,-0.218881 0,-0.190331 -0.05234,-0.35925 -0.05234,-0.171298 -0.185572,-0.299772 -0.130853,-0.130852 -0.356872,-0.204606 -0.223639,-0.07613 -0.570993,-0.07613 -0.233156,0 -0.425866,0.04758 -0.190332,0.0452 -0.342597,0.128473 -0.152265,0.08089 -0.271222,0.192711 -0.118957,0.111819 -0.206985,0.245051 -0.08803,0.130853 -0.149886,0.280739 -0.05948,0.147506 -0.09517,0.299771 -0.03569,0.152265 -0.05234,0.30453 -0.01665,0.152265 -0.01665,0.295014 0,0.259326 0.0571,0.463932 0.0571,0.204606 0.197469,0.347355 0.140369,0.142748 0.373525,0.216501 0.235535,0.07613 0.587647,0.07613 0.183194,0 0.33308,-0.02141 0.152265,-0.02141 0.264085,-0.0452 0.114198,-0.02379 0.185573,-0.0452 0.07137,-0.02141 0.09754,-0.02141 0.01665,0 0.02855,0.0071 0.0119,0.0095 0.01903,0.03331 0.0071,0.02379 0.0095,0.06424 0.0048,0.04045 0.0048,0.102303 0,0.05234 -0.0024,0.08803 -0.0024,0.03569 -0.0095,0.05948 -0.0048,0.02617 -0.01427,0.04282 -0.0095,0.01903 -0.02379,0.03093 -0.01427,0.01427 -0.09041,0.04045 -0.07375,0.02617 -0.199848,0.04996 -0.123715,0.02617 -0.292634,0.0452 -0.16654,0.01903 -0.366388,0.01903 -0.452037,0 -0.770842,-0.104683 -0.318804,-0.102303 -0.523411,-0.299771 -0.202226,-0.19509 -0.297392,-0.473449 -0.09279,-0.280739 -0.09279,-0.630473 0,-0.195089 0.02617,-0.397316 0.02855,-0.202227 0.08565,-0.399696 0.0571,-0.197468 0.147507,-0.383041 0.09279,-0.187952 0.218881,-0.354492 0.126094,-0.16654 0.290255,-0.30453 0.16654,-0.14037 0.371146,-0.240293 0.206985,-0.09992 0.454416,-0.154645 0.249809,-0.05472 0.547202,-0.05472 0.435383,0 0.744671,0.09754 0.311667,0.09755 0.511515,0.27598 0.199848,0.178436 0.292634,0.430625 0.09517,0.249809 0.09517,0.556719 z m -1.598782,0.211743 q -0.07138,-0.130853 -0.149886,-0.197469 -0.07613,-0.06661 -0.173678,-0.06661 -0.08327,0 -0.149885,0.04044 -0.06424,0.03807 -0.114199,0.104682 -0.04996,0.06424 -0.08565,0.147507 -0.03331,0.08089 -0.0571,0.16654 -0.02141,0.08565 -0.03093,0.168919 -0.0095,0.08089 -0.0095,0.142748 0,0.142748 0.05234,0.226018 0.05234,0.08327 0.176057,0.08327 0.0452,0 0.09279,-0.01427 0.04996,-0.01665 0.102303,-0.04996 0.05472,-0.03569 0.114199,-0.09041 0.06186,-0.0571 0.135611,-0.135611 z m -2.471927,-1.460792 z"
         id="path4" />
    </g>
  </g>
</svg>
