<?xml version="1.0" encoding="UTF-8" standalone="no"?>
<!-- Created with Inkscape (http://www.inkscape.org/) -->

<svg
   width="150"
   height="150"
   viewBox="0 0 39.687499 39.6875"
   version="1.1"
   id="svg1"
   inkscape:version="1.3.2 (091e20e, 2023-11-25, custom)"
   sodipodi:docname="ZUMBIbura.svg"
   inkscape:export-filename="CUTout\ZUMBIbura\ZUMbraco.svg"
   inkscape:export-xdpi="96"
   inkscape:export-ydpi="96"
   xmlns:inkscape="http://www.inkscape.org/namespaces/inkscape"
   xmlns:sodipodi="http://sodipodi.sourceforge.net/DTD/sodipodi-0.dtd"
   xmlns="http://www.w3.org/2000/svg"
   xmlns:svg="http://www.w3.org/2000/svg">
  <sodipodi:namedview
     id="namedview1"
     pagecolor="#ffffff"
     bordercolor="#000000"
     borderopacity="0.25"
     inkscape:showpageshadow="2"
     inkscape:pageopacity="0.0"
     inkscape:pagecheckerboard="0"
     inkscape:deskcolor="#d1d1d1"
     inkscape:document-units="px"
     inkscape:zoom="1.5109638"
     inkscape:cx="30.444145"
     inkscape:cy="196.23237"
     inkscape:window-width="1080"
     inkscape:window-height="1857"
     inkscape:window-x="-8"
     inkscape:window-y="-8"
     inkscape:window-maximized="1"
     inkscape:current-layer="layer1" />
  <defs
     id="defs1" />
  <g
     inkscape:label="Camada 1"
     inkscape:groupmode="layer"
     id="layer1">
    <g
       id="g20">
      <path
         style="fill:#8adbe3;fill-opacity:1;stroke:#000000;stroke-width:0.529167;stroke-linecap:round;stroke-linejoin:round;stroke-dasharray:none;stroke-opacity:1"
         d="m 24.948852,13.653485 c 4.656817,4.23649 5.03667,13.463189 1.050654,18.268658 -5.324983,6.419703 -25.47835771,4.618713 -25.47835771,4.618713 L 7.7006169,32.499484 c 0,0 -5.6597753,-14.593384 -0.9193223,-19.175907 C 11.008498,9.2372035 20.591949,9.6898395 24.948852,13.653485 Z"
         id="path17"
         sodipodi:nodetypes="ssccss" />
      <g
         id="g19">
        <path
           style="fill:none;fill-opacity:1;stroke:#000000;stroke-width:0.264583;stroke-linecap:round;stroke-linejoin:round;stroke-dasharray:none;stroke-opacity:1"
           d="m 20.678066,29.097877 c 0.763561,0.201713 1.527123,0.247231 2.290684,-0.247642"
           id="path18"
           sodipodi:nodetypes="cc" />
        <path
           style="fill:none;fill-opacity:1;stroke:#000000;stroke-width:0.264583;stroke-linecap:round;stroke-linejoin:round;stroke-dasharray:none;stroke-opacity:1"
           d="m 21.560289,28.788325 0.634581,-0.06191"
           id="path19" />
      </g>
    </g>
    <g
       id="g14"
       transform="matrix(1.1517482,-0.19212887,0.19209008,1.1515159,-4.6960599,1.4189564)"
       style="stroke-width:0.856498"
       inkscape:transform-center-x="-5.3262428"
       inkscape:transform-center-y="4.4495425">
      <path
         style="fill:#8adbe3;fill-opacity:1;stroke:none;stroke-width:0.226615;stroke-linecap:round;stroke-linejoin:round;stroke-dasharray:none;stroke-opacity:1"
         d="m 21.87222,15.210348 c 0.539936,-1.060311 1.697026,-2.106949 2.886873,-2.099544 1.550137,0.0096 3.02451,1.399883 3.726691,2.781896 0.745018,1.466322 0.05249,4.933928 0.05249,4.933928 0,0 1.184595,0.829773 2.299174,0.585061 1.114579,-0.244712 2.568668,0.552585 2.555724,0.746764 l -0.05843,0.333523 c -0.772203,-0.128584 -1.545206,-0.238775 -2.341635,0.189844 0.79836,0.13268 1.610423,0.02553 2.376437,0.724273 l -0.06969,0.403647 c -0.736407,-0.354993 -1.574548,-0.215848 -2.432078,0.01747 0.861025,0.08236 1.695749,0.239224 2.349614,0.908532 l -0.02211,0.412315 c -0.758336,-0.244634 -1.499193,-0.594133 -2.392227,-0.03057 l -0.08652,0.09194 c -0.892354,0.948248 -3.991393,0.755215 -5.747502,-1.023529 -0.994379,-1.007194 0.442608,-3.275489 -0.629864,-4.199088 -0.623105,-0.536611 -1.885495,0.58147 -2.466964,0 -1.125823,-1.125823 -0.722486,-3.35767 -3e-6,-4.776462 z"
         id="path11"
         sodipodi:nodetypes="sssczcccccccccssssss" />
      <path
         style="fill:none;fill-opacity:1;stroke:#000000;stroke-width:0.45323;stroke-linecap:round;stroke-linejoin:round;stroke-dasharray:none;stroke-opacity:1"
         d="m 23.327367,13.579274 c 0.03966,2.46e-4 0.410223,-0.245861 0.827262,-0.360609 0.423231,-0.116452 0.893018,-0.101545 0.933015,-0.0977 1.461068,0.140609 2.821688,1.458822 3.487673,2.769596 0.745017,1.466322 0.05249,4.933928 0.05249,4.933928 0,0 1.184595,0.829773 2.299174,0.585061 1.114579,-0.244712 2.568668,0.552585 2.555724,0.746764 l -0.05843,0.333523 c -0.772203,-0.128584 -1.545206,-0.238775 -2.341635,0.189844 0.79836,0.13268 1.610423,0.02553 2.376437,0.724273 l -0.06969,0.403647 c -0.736407,-0.354993 -1.574548,-0.215848 -2.432078,0.01747 0.861025,0.08236 1.695749,0.239224 2.349614,0.908532 l -0.02211,0.412315 c -0.758336,-0.244634 -1.499193,-0.594133 -2.392227,-0.03057 l -0.08652,0.09194 c -0.892354,0.948248 -3.991393,0.755215 -5.747502,-1.023529 -0.994379,-1.007194 0.442608,-3.275489 -0.629864,-4.199088 -0.623105,-0.536611 -1.885495,0.58147 -2.466964,0"
         id="path14"
         sodipodi:nodetypes="csssczcccccccccsssc" />
    </g>
    <g
       id="g13"
       transform="rotate(-6.4964147,13.855615,12.561247)"
       inkscape:transform-center-x="0.19603822"
       inkscape:transform-center-y="-6.0568866">
      <path
         style="fill:#8adbe3;fill-opacity:1;stroke:none;stroke-width:0.529167;stroke-linecap:round;stroke-linejoin:round;stroke-dasharray:none;stroke-opacity:1"
         d="m 25.502718,16.95045 c 0,0 0.575407,-13.3019591 -6.248591,-13.3596481 -5.530713,-0.046756 -5.539988,12.8421671 -5.539988,12.8421671 0.258507,4.551414 11.491033,5.582517 11.788579,0.517481 z"
         id="path1"
         sodipodi:nodetypes="cscc" />
      <ellipse
         style="fill:#fdffff;fill-opacity:1;stroke:#000000;stroke-width:0.264583;stroke-linecap:round;stroke-linejoin:round;stroke-dasharray:none;stroke-opacity:1"
         id="path3"
         cx="17.48901"
         cy="7.7376285"
         rx="1.1163198"
         ry="0.90837789" />
      <ellipse
         style="fill:#fdffff;fill-opacity:1;stroke:#000000;stroke-width:0.264583;stroke-linecap:round;stroke-linejoin:round;stroke-dasharray:none;stroke-opacity:1"
         id="path4"
         cx="21.87768"
         cy="7.8032942"
         rx="1.127264"
         ry="0.95215511" />
      <path
         style="fill:none;fill-opacity:1;stroke:#000000;stroke-width:0.264583;stroke-linecap:round;stroke-linejoin:round;stroke-dasharray:none;stroke-opacity:1"
         d="m 16.174086,8.6055424 c 0.375442,0.5440746 0.966691,0.6565351 1.67158,0.5417158"
         id="path5"
         sodipodi:nodetypes="cc" />
      <path
         style="fill:none;fill-opacity:1;stroke:#000000;stroke-width:0.264583;stroke-linecap:round;stroke-linejoin:round;stroke-dasharray:none;stroke-opacity:1"
         d="m 20.693544,8.6055424 c 0.375442,0.5440746 0.966691,0.6565351 1.67158,0.5417158"
         id="path6"
         sodipodi:nodetypes="cc" />
      <path
         style="fill:#311a13;fill-opacity:1;stroke:#000000;stroke-width:0.264583;stroke-linecap:round;stroke-linejoin:round;stroke-dasharray:none;stroke-opacity:1"
         d="m 21.450851,11.513416 c -1.294041,-0.63078 -3.009011,-0.852732 -4.312059,-0.240775 -1.199343,0.563253 -2.210751,4.509056 -2.210751,4.509056 l 2.276417,-1.138208 0.547216,2.23264 1.75109,-1.991865 1.597869,1.926198 0.722325,-2.188861 2.23264,0.963099 c 0,0 -0.872231,-3.22677 -2.604747,-4.071284 z"
         id="path7"
         sodipodi:nodetypes="sscccccccs" />
      <path
         style="fill:#8adbe3;fill-opacity:1;stroke:#000000;stroke-width:0.264583;stroke-linecap:round;stroke-linejoin:round;stroke-dasharray:none;stroke-opacity:1"
         d="m 19.532724,7.2125588 1.578714,2.8788322 -1.7954,1.516805"
         id="path2" />
      <path
         style="fill:#2b2b2b;fill-opacity:1;stroke:#000000;stroke-width:0.264583;stroke-linecap:round;stroke-linejoin:round;stroke-dasharray:none;stroke-opacity:1"
         d="m 16.808667,13.202388 c -0.0099,-0.842409 1.449636,-1.019082 2.290684,-1.067954 1.03099,-0.05991 2.942243,-0.05764 2.940743,0.975088 -0.0016,1.091471 -2.020769,1.073634 -3.110996,1.021521 -0.770744,-0.03684 -2.111378,-0.157084 -2.120431,-0.928655 z"
         id="path8"
         sodipodi:nodetypes="sssss" />
      <path
         style="fill:#933736;fill-opacity:1;stroke:#000000;stroke-width:0.264583;stroke-linecap:round;stroke-linejoin:round;stroke-dasharray:none;stroke-opacity:1"
         d="m 18.04717,14.030608 c 0,0 1.103064,-0.745414 2.177918,-0.744213 0.913441,10e-4 1.433705,0.415883 1.433705,0.415883 -0.973643,0.493162 -2.297029,0.403419 -3.611623,0.32833 z"
         id="path9"
         sodipodi:nodetypes="cscc" />
      <path
         style="fill:#ffffff;fill-opacity:1;stroke:#000000;stroke-width:0.264583;stroke-linecap:round;stroke-linejoin:round;stroke-dasharray:none;stroke-opacity:1"
         d="m 18.162957,12.281471 v 0.526238 l 0.51076,-0.01548 0.02869,-0.617226 z"
         id="path10"
         sodipodi:nodetypes="ccccc" />
      <path
         style="fill:none;fill-opacity:1;stroke:#000000;stroke-width:0.529167;stroke-linecap:round;stroke-linejoin:round;stroke-dasharray:none;stroke-opacity:1"
         d="m 25.53803,16.870578 c 0,0 1.193256,-13.3289092 -6.283903,-13.2797761 C 13.230348,3.6303847 13.651238,16.46816 13.651238,16.46816"
         id="path13"
         sodipodi:nodetypes="csc" />
    </g>
    <g
       id="g16"
       transform="matrix(1.0914784,-0.41486424,0.41478053,1.0912582,-24.090922,11.447042)"
       style="stroke-width:0.856498"
       inkscape:transform-center-x="-6.3878386"
       inkscape:transform-center-y="3.5552412">
      <path
         style="fill:#8adbe3;fill-opacity:1;stroke:none;stroke-width:0.226615;stroke-linecap:round;stroke-linejoin:round;stroke-dasharray:none;stroke-opacity:1"
         d="m 21.87222,15.210348 c 0.539936,-1.060311 1.697026,-2.106949 2.886873,-2.099544 1.550137,0.0096 3.02451,1.399883 3.726691,2.781896 0.745018,1.466322 0.05249,4.933928 0.05249,4.933928 0,0 1.184595,0.829773 2.299174,0.585061 1.114579,-0.244712 2.568668,0.552585 2.555724,0.746764 l -0.05843,0.333523 c -0.772203,-0.128584 -1.545206,-0.238775 -2.341635,0.189844 0.79836,0.13268 1.610423,0.02553 2.376437,0.724273 l -0.06969,0.403647 c -0.736407,-0.354993 -1.574548,-0.215848 -2.432078,0.01747 0.861025,0.08236 1.695749,0.239224 2.349614,0.908532 l -0.02211,0.412315 c -0.758336,-0.244634 -1.499193,-0.594133 -2.392227,-0.03057 l -0.08652,0.09194 c -0.892354,0.948248 -3.991393,0.755215 -5.747502,-1.023529 -0.994379,-1.007194 0.442608,-3.275489 -0.629864,-4.199088 -0.623105,-0.536611 -1.885495,0.58147 -2.466964,0 -1.125823,-1.125823 -0.722486,-3.35767 -3e-6,-4.776462 z"
         id="path15"
         sodipodi:nodetypes="sssczcccccccccssssss" />
      <path
         style="fill:none;fill-opacity:1;stroke:#000000;stroke-width:0.45323;stroke-linecap:round;stroke-linejoin:round;stroke-dasharray:none;stroke-opacity:1"
         d="m 24.154629,13.218665 c 0.423231,-0.116452 0.893018,-0.101545 0.933015,-0.0977 1.461068,0.140609 2.821688,1.458822 3.487673,2.769596 0.745017,1.466322 0.05249,4.933928 0.05249,4.933928 0,0 1.184595,0.829773 2.299174,0.585061 1.114579,-0.244712 2.568668,0.552585 2.555724,0.746764 l -0.05843,0.333523 c -0.772203,-0.128584 -1.545206,-0.238775 -2.341635,0.189844 0.79836,0.13268 1.610423,0.02553 2.376437,0.724273 l -0.06969,0.403647 c -0.736407,-0.354993 -1.574548,-0.215848 -2.432078,0.01747 0.861025,0.08236 1.695749,0.239224 2.349614,0.908532 l -0.02211,0.412315 c -0.758336,-0.244634 -1.499193,-0.594133 -2.392227,-0.03057 l -0.08652,0.09194 c -0.892354,0.948248 -3.991393,0.755215 -5.747502,-1.023529 -0.994379,-1.007194 0.442608,-3.275489 -0.629864,-4.199088 -0.623105,-0.536611 -1.885495,0.58147 -2.466964,0 -1.665516,-1.319829 -0.541906,-6.013528 2.192893,-6.766006 z"
         id="path16"
         sodipodi:nodetypes="sssczcccccccccssscs" />
    </g>
  </g>
</svg>
