<?xml version="1.0" encoding="UTF-8" standalone="no"?>
<!-- Created with Inkscape (http://www.inkscape.org/) -->

<svg
   width="250"
   height="250"
   viewBox="0 0 66.145832 66.145833"
   version="1.1"
   id="svg1"
   inkscape:version="1.3.2 (091e20e, 2023-11-25, custom)"
   sodipodi:docname="JOJOicone.svg"
   xmlns:inkscape="http://www.inkscape.org/namespaces/inkscape"
   xmlns:sodipodi="http://sodipodi.sourceforge.net/DTD/sodipodi-0.dtd"
   xmlns="http://www.w3.org/2000/svg"
   xmlns:svg="http://www.w3.org/2000/svg">
  <sodipodi:namedview
     id="namedview1"
     pagecolor="#ffffff"
     bordercolor="#000000"
     borderopacity="0.25"
     inkscape:showpageshadow="2"
     inkscape:pageopacity="0.0"
     inkscape:pagecheckerboard="0"
     inkscape:deskcolor="#d1d1d1"
     inkscape:document-units="px"
     inkscape:zoom="1.4142136"
     inkscape:cx="132.22897"
     inkscape:cy="142.48202"
     inkscape:window-width="1920"
     inkscape:window-height="1017"
     inkscape:window-x="1072"
     inkscape:window-y="239"
     inkscape:window-maximized="1"
     inkscape:current-layer="layer1" />
  <defs
     id="defs1" />
  <g
     inkscape:label="Camada 1"
     inkscape:groupmode="layer"
     id="layer1">
    <rect
       style="fill:#ffffff;stroke:#000000;stroke-width:0.529167;stroke-linecap:round;stroke-linejoin:round;fill-opacity:1"
       id="rect1"
       width="66.135841"
       height="65.855209"
       x="0"
       y="0.093544334" />
    <path
       style="fill:none;stroke:#000000;stroke-width:0.529167;stroke-linecap:round;stroke-linejoin:round"
       d="m 25.711459,36.473514 c 0,0 6.499659,-0.376843 6.764736,3.179713 0.287412,3.856227 -6.952251,5.466878 -6.952251,5.466878 l 22.127389,3.195479 C 36.84059,55.354232 22.101197,53.821814 7.5219933,52.638877"
       id="path1"
       sodipodi:nodetypes="csccc" />
    <path
       style="fill:#ffffff;fill-opacity:1;stroke:#000000;stroke-width:0.529167;stroke-linecap:round;stroke-linejoin:round"
       d="m 9.9606283,52.862323 c 0,0 0.6189137,4.154124 2.3941057,4.422984 1.880631,0.284829 4.241345,-3.959661 4.241345,-3.959661 z"
       id="path2"
       sodipodi:nodetypes="cscc" />
    <path
       style="fill:#ffffff;fill-opacity:1;stroke:#000000;stroke-width:0.529167;stroke-linecap:round;stroke-linejoin:round"
       d="m 21.517853,53.578561 c 0,0 1.163259,4.048025 2.938451,4.316885 1.88063,0.28483 3.681878,-4.232484 3.681878,-4.232484 z"
       id="path3"
       sodipodi:nodetypes="cscc" />
    <path
       style="fill:#ffffff;fill-opacity:1;stroke:#000000;stroke-width:0.529167;stroke-linecap:round;stroke-linejoin:round"
       d="m 34.330311,53.094355 c 0,0 2.166868,3.609478 3.9511,3.409594 1.89021,-0.211752 2.481448,-4.936046 2.481448,-4.936046 -2.092148,0.630523 -4.219911,1.177744 -6.432548,1.526452 z"
       id="path4"
       sodipodi:nodetypes="cscc" />
    <g
       id="g7"
       transform="matrix(1.0888896,0,0,1.0889692,-8.2424222,15.343379)"
       style="stroke-width:0.918335">
      <path
         style="fill:#ffffff;fill-opacity:1;stroke:#000000;stroke-width:0.485952;stroke-linecap:round;stroke-linejoin:round"
         d="m 24.540104,13.196093 c 0.297656,0.79375 0.187699,2.154575 0.187699,2.154575 -2.80633,1.122536 -9.822155,-0.09354 -9.822155,-0.09354 0,0 -0.452784,-0.87041 0.142529,-2.061035"
         id="path5" />
      <path
         style="fill:#ffffff;fill-opacity:1;stroke:#000000;stroke-width:0.485952;stroke-linecap:round;stroke-linejoin:round"
         d="m 15.478125,15.411979 c 0,0 -0.376283,3.726523 0.595312,5.159375 0.365407,0.538881 1.087413,0.771084 1.719792,0.926042 1.606272,0.393599 3.357105,0.337276 4.960937,-0.06615 0.602517,-0.151556 1.342045,-0.322401 1.653646,-0.859896 0.818986,-1.412709 -0.198437,-4.894792 -0.198437,-4.894792 -2.872957,0.03667 -5.683648,0.280898 -8.73125,-0.264579 z"
         id="path6"
         sodipodi:nodetypes="csssscc" />
      <path
         style="fill:#000000;fill-opacity:1;stroke:#000000;stroke-width:0.485952;stroke-linecap:round;stroke-linejoin:round"
         d="m 18.405078,21.530468 c 0,0 0.320091,-2.664612 1.30638,-3.340364 1.34599,-0.9222 4.795573,-1.174092 4.795573,-1.174092 0.05825,0.891621 0.365612,2.926518 -0.463021,3.902605 -1.981907,0.868658 -3.832374,0.882959 -5.638932,0.611851 z"
         id="path7"
         sodipodi:nodetypes="csccc" />
    </g>
    <g
       id="g10"
       transform="matrix(1.0888896,0,0,1.0889692,16.203846,15.343379)"
       style="stroke-width:0.918335">
      <path
         style="fill:#ffffff;fill-opacity:1;stroke:#000000;stroke-width:0.485952;stroke-linecap:round;stroke-linejoin:round"
         d="m 24.540104,13.196093 c 0.297656,0.79375 0.187699,2.154575 0.187699,2.154575 -2.80633,1.122536 -9.822155,-0.09354 -9.822155,-0.09354 0,0 -0.452784,-0.87041 0.142529,-2.061035"
         id="path8" />
      <path
         style="fill:#ffffff;fill-opacity:1;stroke:#000000;stroke-width:0.485952;stroke-linecap:round;stroke-linejoin:round"
         d="m 15.478125,15.411979 c 0,0 -0.376283,3.726523 0.595312,5.159375 0.365407,0.538881 1.087413,0.771084 1.719792,0.926042 1.606272,0.393599 3.357105,0.337276 4.960937,-0.06615 0.602517,-0.151556 1.342045,-0.322401 1.653646,-0.859896 0.818986,-1.412709 -0.198437,-4.894792 -0.198437,-4.894792 -2.872957,0.03667 -5.683648,0.280898 -8.73125,-0.264579 z"
         id="path9"
         sodipodi:nodetypes="csssscc" />
      <path
         style="fill:#000000;fill-opacity:1;stroke:#000000;stroke-width:0.485952;stroke-linecap:round;stroke-linejoin:round"
         d="m 18.405078,21.530468 c 0,0 0.320091,-2.664612 1.30638,-3.340364 1.34599,-0.9222 4.795573,-1.174092 4.795573,-1.174092 0.05825,0.891621 0.365612,2.926518 -0.463021,3.902605 -1.981907,0.868658 -3.832374,0.882959 -5.638932,0.611851 z"
         id="path10"
         sodipodi:nodetypes="csccc" />
    </g>
    <path
       style="fill:#414141;fill-opacity:1;stroke:#000000;stroke-width:0.529167;stroke-linecap:round;stroke-linejoin:round"
       d="M 2.1327641,19.389612 44.20072,18.676543 c 0,0 16.536496,5.655454 14.056605,6.621348 -5.807547,2.261981 -35.810066,4.150328 -49.2999767,0.305601 -2.9586612,-0.843241 -6.8245842,-6.21388 -6.8245842,-6.21388 z"
       id="path11"
       sodipodi:nodetypes="ccssc" />
    <path
       style="fill:#414141;fill-opacity:1;stroke:#000000;stroke-width:0.529167;stroke-linecap:round;stroke-linejoin:round"
       d="M 43.997,18.676543 V 5.3319797 L 1.2160291,5.5357136 1.9290447,19.389612 Z"
       id="path12" />
    <path
       style="fill:#1d601c;fill-opacity:1;stroke:#000000;stroke-width:0.529167;stroke-linecap:round;stroke-linejoin:round"
       d="m 15.958149,10.013102 0.07202,2.665138 2.376842,-0.216091 c 0,0 2.878079,4.165847 5.11381,4.393875 3.987873,0.406735 10.515724,-5.834491 10.515724,-5.834491 0,0 -7.082132,-4.3037568 -10.947876,-3.9616929 -1.960739,0.1734982 -5.113806,2.9532619 -5.113806,2.9532619 z"
       id="path13"
       sodipodi:nodetypes="cccscscc" />
    <path
       style="fill:none;fill-opacity:1;stroke:#000000;stroke-width:0.529167;stroke-linecap:round;stroke-linejoin:round"
       d="m 16.138212,11.381687 c 0,0 10.119584,-1.188508 12.604465,-0.39617"
       id="path14" />
    <path
       style="fill:none;fill-opacity:1;stroke:#000000;stroke-width:0.529167;stroke-linecap:round;stroke-linejoin:round"
       d="m 21.360062,9.941071 0.07203,2.160923"
       id="path15" />
    <path
       style="fill:none;fill-opacity:1;stroke:#000000;stroke-width:0.529167;stroke-linecap:round;stroke-linejoin:round"
       d="m 23.484814,9.7249787 0.10804,2.0528773"
       id="path16" />
    <path
       style="fill:none;fill-opacity:1;stroke:#000000;stroke-width:0.529167;stroke-linecap:round;stroke-linejoin:round"
       d="m 25.39349,9.6169325 0.10804,2.0168615"
       id="path17" />
    <path
       style="fill:none;fill-opacity:1;stroke:#000000;stroke-width:0.529167;stroke-linecap:round;stroke-linejoin:round"
       d="m 27.446218,9.9770863 0.10804,1.6206927"
       id="path18" />
    <g
       id="g24">
      <path
         style="fill:#7fc7df;fill-opacity:1;stroke:#000000;stroke-width:0.529167;stroke-linecap:round;stroke-linejoin:round"
         d="m 53.178577,60.865263 4.583673,2.15152 1.028986,-2.15152 c 0,0 5.108063,0.193765 5.986838,-1.683798 1.390408,-2.970702 -1.039794,-7.615581 -4.022405,-8.980257 -2.960289,-1.354463 -7.973075,-0.141506 -9.354433,2.806329 -0.877347,1.872269 2.43215,5.706206 2.43215,5.706206 z"
         id="path19"
         sodipodi:nodetypes="cccssscc" />
      <path
         style="fill:none;fill-opacity:1;stroke:#000000;stroke-width:0.529167;stroke-linecap:round;stroke-linejoin:round"
         d="m 54.067249,61.286212 0.514493,-1.169305"
         id="path20" />
      <path
         style="fill:none;fill-opacity:1;stroke:#000000;stroke-width:0.529167;stroke-linecap:round;stroke-linejoin:round"
         d="M 55.283324,61.800705 55.79782,60.631403"
         id="path21" />
      <path
         style="fill:none;fill-opacity:1;stroke:#000000;stroke-width:0.529167;stroke-linecap:round;stroke-linejoin:round"
         d="m 56.639719,62.502288 0.608036,-1.309619"
         id="path22" />
      <ellipse
         style="fill:none;fill-opacity:1;stroke:#000000;stroke-width:0.529167;stroke-linecap:round;stroke-linejoin:round"
         id="path23"
         cx="55.727661"
         cy="54.20023"
         rx="1.3797789"
         ry="2.0813613" />
      <ellipse
         style="fill:none;fill-opacity:1;stroke:#000000;stroke-width:0.529167;stroke-linecap:round;stroke-linejoin:round"
         id="path24"
         cx="60.966141"
         cy="55.74371"
         rx="1.3797789"
         ry="2.1749058" />
    </g>
  </g>
</svg>
