<?xml version="1.0" encoding="UTF-8" standalone="no"?>
<!-- Created with Inkscape (http://www.inkscape.org/) -->

<svg
   width="120.26294mm"
   height="19.915855mm"
   viewBox="0 0 120.26294 19.915855"
   version="1.1"
   id="svg1"
   xml:space="preserve"
   inkscape:version="1.3.2 (091e20e, 2023-11-25, custom)"
   sodipodi:docname="GUI PLANTS processo.svg"
   xmlns:inkscape="http://www.inkscape.org/namespaces/inkscape"
   xmlns:sodipodi="http://sodipodi.sourceforge.net/DTD/sodipodi-0.dtd"
   xmlns="http://www.w3.org/2000/svg"
   xmlns:svg="http://www.w3.org/2000/svg"><sodipodi:namedview
     id="namedview1"
     pagecolor="#ffffff"
     bordercolor="#000000"
     borderopacity="0.25"
     inkscape:showpageshadow="2"
     inkscape:pageopacity="0.0"
     inkscape:pagecheckerboard="0"
     inkscape:deskcolor="#d1d1d1"
     inkscape:document-units="mm"
     inkscape:zoom="0.53420635"
     inkscape:cx="335.07651"
     inkscape:cy="461.43218"
     inkscape:window-width="1920"
     inkscape:window-height="1017"
     inkscape:window-x="1072"
     inkscape:window-y="239"
     inkscape:window-maximized="1"
     inkscape:current-layer="layer1" /><defs
     id="defs1" /><g
     inkscape:label="Camada 1"
     inkscape:groupmode="layer"
     id="layer1"
     transform="translate(-5.4436156,-186.89454)"><g
       id="g266"
       transform="matrix(1,0,0,1.1011242,2.476418,179.26434)"
       style="stroke-width:0.952976"><rect
         style="fill:#918e8e;fill-opacity:1;stroke:#000000;stroke-width:0.504284;stroke-linecap:round;stroke-linejoin:round;stroke-dasharray:none;stroke-opacity:1"
         id="rect265"
         width="119.75867"
         height="17.582546"
         x="3.2193394"
         y="7.1816034"
         ry="1.1198125"
         rx="2.2837086" /><rect
         style="fill:#625f5f;fill-opacity:1;stroke:#000000;stroke-width:0.252141;stroke-linecap:round;stroke-linejoin:round;stroke-dasharray:none;stroke-opacity:1"
         id="rect266"
         width="117.40607"
         height="15.849055"
         x="4.5813675"
         y="8.0483484"
         ry="1.1198125"
         rx="2.2837086" /><rect
         style="fill:#625f5f;fill-opacity:1;stroke:#000000;stroke-width:0.252141;stroke-linecap:round;stroke-linejoin:round;stroke-dasharray:none;stroke-opacity:1"
         id="rect376"
         width="117.40607"
         height="15.849055"
         x="4.5813675"
         y="8.0483484"
         ry="1.1198125"
         rx="2.2837086" /></g><g
       id="g268"
       transform="translate(2.476418,181.94398)"><rect
         style="fill:#333333;fill-opacity:1;stroke:#000000;stroke-width:0.264584;stroke-linecap:round;stroke-linejoin:round;stroke-dasharray:none;stroke-opacity:1"
         id="rect267"
         width="17.055496"
         height="5.0832729"
         x="6.9099584"
         y="16.811388"
         ry="1.0967876"
         rx="1.0242541" /><g
         id="g267"
         transform="matrix(0.39122609,0,0,0.3911578,10.876577,7.9483619)"
         style="stroke-width:0.676352;stroke-dasharray:none"><path
           sodipodi:type="star"
           style="fill:#e1ba4b;fill-opacity:1;stroke:#000000;stroke-width:0.967479;stroke-linecap:round;stroke-linejoin:round;stroke-dasharray:none"
           id="path267"
           inkscape:flatsided="false"
           sodipodi:sides="8"
           sodipodi:cx="3.6057682"
           sodipodi:cy="3.9427557"
           sodipodi:r1="7.2417073"
           sodipodi:r2="5.0738635"
           sodipodi:arg1="0.89750887"
           sodipodi:arg2="1.3280402"
           inkscape:rounded="0"
           inkscape:randomized="0"
           d="M 8.1214029,9.6041485 4.8254177,8.8678492 2.7955949,11.139001 0.98562361,8.2877451 -2.0556246,8.4583904 -1.3193253,5.1624052 -3.5904769,3.1325824 -0.73922123,1.3226111 -0.90986652,-1.7186371 2.3861187,-0.98233781 4.4159415,-3.2534894 6.2259128,-0.40223373 9.267161,-0.57287902 8.5308617,2.7231062 10.802013,4.752929 7.9507576,6.5629003 Z"
           inkscape:transform-center-x="0.14062682"
           inkscape:transform-center-y="-0.83228021"
           transform="matrix(1.3979072,0,0,1.3984422,5.4879403,4.9846886)" /><ellipse
           style="fill:#f8e1a3;fill-opacity:1;stroke:#000000;stroke-width:0.676352;stroke-linecap:round;stroke-linejoin:round;stroke-dasharray:none"
           id="ellipse267"
           cx="10.547713"
           cy="10.463467"
           rx="5.6950912"
           ry="5.543447" /></g></g><g
       id="g329"
       transform="matrix(0.95324312,0,0,0.95199695,-1.075752,217.68428)"
       style="stroke-width:1.04974"><g
         id="g269"
         transform="matrix(0.80432324,0,0,0.89738747,9.0547762,-10.165251)"
         style="stroke-width:1.23559"><rect
           style="fill:#b3b3b3;fill-opacity:1;stroke:#000000;stroke-width:0.653834;stroke-linecap:round;stroke-linejoin:round;stroke-dasharray:none;stroke-opacity:1"
           id="rect268"
           width="15.18232"
           height="16.859798"
           x="28.043577"
           y="-21.497648"
           rx="0.92305934"
           ry="1.3408462" /><rect
           style="fill:#f9f9f9;fill-opacity:1;stroke:#000000;stroke-width:0.326916;stroke-linecap:round;stroke-linejoin:round;stroke-dasharray:none;stroke-opacity:1"
           id="rect269"
           width="13.781447"
           height="15.196262"
           x="28.744013"
           y="-20.84099"
           rx="0.92305934"
           ry="1.3408462" /><path
           id="path269"
           style="fill:#333333;fill-opacity:1;stroke:#000000;stroke-width:0.326916;stroke-linecap:round;stroke-linejoin:round;stroke-dasharray:none"
           d="m 42.510267,-11.156424 0.0152,4.3661979 c 0.0022,0.6345962 -0.219104,1.1454984 -0.491264,1.1454984 H 29.235277 c -0.27216,0 -0.491264,-0.5108923 -0.491264,-1.1454984 l 0.0152,-4.3586869 z"
           sodipodi:nodetypes="csssscc" /></g><g
         id="g328"
         transform="matrix(0.75015748,0,0,0.75170805,9.9325284,-19.652476)"
         style="stroke-width:1.39791"><path
           style="fill:#008000;fill-opacity:1;stroke:#000000;stroke-width:0.739729;stroke-linecap:round;stroke-linejoin:round;stroke-dasharray:none;stroke-opacity:1"
           d="m 39.816857,-1.4369778 1.158645,-1.0237411 -1.567578,-1.5014868 c 0,0 1.334259,-3.0447138 0.6134,-4.2997115 -1.417713,-2.4682028 -7.906043,-3.2077228 -7.906043,-3.2077228 0,0 -0.433886,5.0457351 1.022331,6.8249403 1.102411,1.3469248 4.907202,1.7744844 4.907202,1.7744844 z"
           id="path327"
           sodipodi:nodetypes="cccscscc" /><path
           style="fill:none;fill-opacity:1;stroke:#000000;stroke-width:0.739729;stroke-linecap:round;stroke-linejoin:round;stroke-dasharray:none;stroke-opacity:1"
           d="m 33.22693,-10.068767 c 1.163588,1.9116065 1.591964,3.8232131 4.596612,5.7348196"
           id="path328"
           sodipodi:nodetypes="cc" /></g></g><g
       id="g333"
       transform="matrix(0.95324312,0,0,0.95199695,-5.206652,206.71409)"
       style="stroke-width:1.04974"><g
         id="g330"
         transform="matrix(0.80432324,0,0,0.89738747,28.357081,1.2788354)"
         style="stroke-width:1.23559"><rect
           style="fill:#b3b3b3;fill-opacity:1;stroke:#000000;stroke-width:0.653834;stroke-linecap:round;stroke-linejoin:round;stroke-dasharray:none;stroke-opacity:1"
           id="rect329"
           width="15.18232"
           height="16.859798"
           x="28.043577"
           y="-21.497648"
           rx="0.92305934"
           ry="1.3408462" /><rect
           style="fill:#f9f9f9;fill-opacity:1;stroke:#000000;stroke-width:0.326916;stroke-linecap:round;stroke-linejoin:round;stroke-dasharray:none;stroke-opacity:1"
           id="rect330"
           width="13.781447"
           height="15.196262"
           x="28.744013"
           y="-20.84099"
           rx="0.92305934"
           ry="1.3408462" /><path
           id="path330"
           style="fill:#333333;fill-opacity:1;stroke:#000000;stroke-width:0.326916;stroke-linecap:round;stroke-linejoin:round;stroke-dasharray:none"
           d="m 42.510267,-11.156424 0.0152,4.3661979 c 0.0022,0.6345962 -0.219104,1.1454984 -0.491264,1.1454984 H 29.235277 c -0.27216,0 -0.491264,-0.5108923 -0.491264,-1.1454984 l 0.0152,-4.3586869 z"
           sodipodi:nodetypes="csssscc" /></g><g
         id="g332"
         transform="matrix(0.71383528,0,0,0.71418067,14.636819,-8.411578)"
         style="stroke-width:1.4702"><ellipse
           style="fill:none;fill-opacity:1;stroke:#000000;stroke-width:1.55595;stroke-linecap:round;stroke-linejoin:round;stroke-dasharray:none;stroke-opacity:1"
           id="ellipse330"
           cx="59.310143"
           cy="-6.6863208"
           rx="3.0955188"
           ry="2.971698" /><path
           style="fill:none;fill-opacity:1;stroke:#000000;stroke-width:1.55595;stroke-linecap:round;stroke-linejoin:round;stroke-dasharray:none;stroke-opacity:1"
           d="m 59.18632,-11.45342 0.12382,9.967571"
           id="path331" /><path
           style="fill:none;fill-opacity:1;stroke:#000000;stroke-width:1.55595;stroke-linecap:round;stroke-linejoin:round;stroke-dasharray:none;stroke-opacity:1"
           d="m 54.233489,-6.6863208 9.843752,-0.06191"
           id="path332" /></g></g><g
       id="g337"
       transform="matrix(0.95324312,0,0,0.95199695,-7.552772,207.02456)"
       style="stroke-width:1.04974"><g
         id="g334"
         transform="matrix(0.80432324,0,0,0.89738747,45.787052,1.1112374)"
         style="stroke-width:1.23559"><rect
           style="fill:#b3b3b3;fill-opacity:1;stroke:#000000;stroke-width:0.653834;stroke-linecap:round;stroke-linejoin:round;stroke-dasharray:none;stroke-opacity:1"
           id="rect333"
           width="15.18232"
           height="16.859798"
           x="28.043577"
           y="-21.497648"
           rx="0.92305934"
           ry="1.3408462" /><rect
           style="fill:#f9f9f9;fill-opacity:1;stroke:#000000;stroke-width:0.326916;stroke-linecap:round;stroke-linejoin:round;stroke-dasharray:none;stroke-opacity:1"
           id="rect334"
           width="13.781447"
           height="15.196262"
           x="28.744013"
           y="-20.84099"
           rx="0.92305934"
           ry="1.3408462" /><path
           id="path334"
           style="fill:#333333;fill-opacity:1;stroke:#000000;stroke-width:0.326916;stroke-linecap:round;stroke-linejoin:round;stroke-dasharray:none"
           d="m 42.510267,-11.156424 0.0152,4.3661979 c 0.0022,0.6345962 -0.219104,1.1454984 -0.491264,1.1454984 H 29.235277 c -0.27216,0 -0.491264,-0.5108923 -0.491264,-1.1454984 l 0.0152,-4.3586869 z"
           sodipodi:nodetypes="csssscc" /></g><g
         id="g336"
         transform="translate(-7.4178684,-8.667563)"
         style="stroke-width:1.04974"><path
           style="fill:#303582;fill-opacity:1;stroke:#000000;stroke-width:0.555486;stroke-linecap:round;stroke-linejoin:round;stroke-dasharray:none;stroke-opacity:1"
           d="m 81.753564,-1.4045168 c -3.777966,0.06532 -3.74649,-6.2811698 -3.74649,-6.2811698 l 7.614978,-0.06191 c 0,0 0.216739,6.272447 -3.868488,6.3430798 z"
           id="path335"
           sodipodi:nodetypes="sccs" /><path
           style="fill:#000780;fill-opacity:1;stroke:#000000;stroke-width:0.555486;stroke-linecap:round;stroke-linejoin:round;stroke-dasharray:none;stroke-opacity:1"
           d="m 81.756981,-2.1470319 c -2.595223,0.044604 -2.883153,-4.722489 -2.883153,-4.722489 l 5.726289,0.05059 c 0,0 -0.03685,4.623667 -2.843136,4.671899 z"
           id="path336"
           sodipodi:nodetypes="sccs" /></g></g><g
       id="g342"
       transform="matrix(0.95324312,0,0,0.95199695,-9.183162,206.7565)"
       style="stroke-width:1.04974"><g
         id="g338"
         transform="matrix(0.80432324,0,0,0.89738747,62.466184,1.1550147)"
         style="stroke-width:1.23559"><rect
           style="fill:#b3b3b3;fill-opacity:1;stroke:#000000;stroke-width:0.653834;stroke-linecap:round;stroke-linejoin:round;stroke-dasharray:none;stroke-opacity:1"
           id="rect337"
           width="15.18232"
           height="16.859798"
           x="28.043577"
           y="-21.497648"
           rx="0.92305934"
           ry="1.3408462" /><rect
           style="fill:#f9f9f9;fill-opacity:1;stroke:#000000;stroke-width:0.326916;stroke-linecap:round;stroke-linejoin:round;stroke-dasharray:none;stroke-opacity:1"
           id="rect338"
           width="13.781447"
           height="15.196262"
           x="28.744013"
           y="-20.84099"
           rx="0.92305934"
           ry="1.3408462" /><path
           id="path338"
           style="fill:#333333;fill-opacity:1;stroke:#000000;stroke-width:0.326916;stroke-linecap:round;stroke-linejoin:round;stroke-dasharray:none"
           d="m 42.510267,-11.156424 0.0152,4.3661979 c 0.0022,0.6345962 -0.219104,1.1454984 -0.491264,1.1454984 H 29.235277 c -0.27216,0 -0.491264,-0.5108923 -0.491264,-1.1454984 l 0.0152,-4.3586869 z"
           sodipodi:nodetypes="csssscc" /></g><g
         id="g341"
         transform="matrix(0.88577301,0,0,0.88444757,-2.0289027,-8.724928)"
         style="stroke-width:1.18599"><path
           style="fill:#7d4a68;fill-opacity:1;stroke:#000000;stroke-width:0.627589;stroke-linecap:round;stroke-linejoin:round;stroke-dasharray:none;stroke-opacity:1"
           d="m 102.18473,-1.0141409 0.005,-1.0545347 -1.79119,0.0301 -0.009,-3.5749789 1.8489,-0.036944 0.0169,-2.1427963 c -0.0183,-0.7509975 2.01061,-0.9820183 2.45517,0.019577 -0.002,-0.5648189 1.976,-1.3155679 2.56685,0.021946 0.005,-0.7558165 2.54958,-1.0611997 2.59696,0.029531 l -0.0111,5.8763319 -1.01046,-0.00539 -0.0274,0.8334645 z"
           id="path339"
           sodipodi:nodetypes="ccccccccccccc" /><rect
           style="fill:#633852;fill-opacity:1;stroke:#000000;stroke-width:0.627589;stroke-linecap:round;stroke-linejoin:round;stroke-dasharray:none;stroke-opacity:1"
           id="rect339"
           width="2.5335631"
           height="2.9097877"
           x="102.27592"
           y="-8.7912731"
           rx="4.9859309"
           ry="0.31195509" /><rect
           style="fill:#633852;fill-opacity:1;stroke:#000000;stroke-width:0.627589;stroke-linecap:round;stroke-linejoin:round;stroke-dasharray:none;stroke-opacity:1"
           id="rect340"
           width="2.5335631"
           height="2.9097877"
           x="104.82615"
           y="-8.7912731"
           rx="4.9859309"
           ry="0.31195509" /><rect
           style="fill:#633852;fill-opacity:1;stroke:#000000;stroke-width:0.627589;stroke-linecap:round;stroke-linejoin:round;stroke-dasharray:none;stroke-opacity:1"
           id="rect341"
           width="2.5335631"
           height="2.9097877"
           x="107.32638"
           y="-8.7912731"
           rx="4.9859309"
           ry="0.31195509" /><path
           style="fill:#7d4a68;fill-opacity:1;stroke:#000000;stroke-width:0.627589;stroke-linecap:round;stroke-linejoin:round;stroke-dasharray:none;stroke-opacity:1"
           d="m 100.39542,-3.6488429 -0.006,-2.3720072 c 0.0771,-0.2562079 0.23129,-0.4352362 0.49396,-0.5058344 l 1.65548,-0.022554 c 0.31376,0.053164 0.55766,0.1839462 0.68595,0.4431861 l -0.0121,1.6059422"
           id="path341"
           sodipodi:nodetypes="cccccc" /></g></g><g
       id="g346"
       transform="matrix(0.95324312,0,0,0.95199695,-11.940262,206.84774)"
       style="stroke-width:1.04974"><g
         id="g343"
         transform="matrix(0.80432324,0,0,0.89738747,80.327301,0.97990571)"
         style="stroke-width:1.23559"><rect
           style="fill:#b3b3b3;fill-opacity:1;stroke:#000000;stroke-width:0.653834;stroke-linecap:round;stroke-linejoin:round;stroke-dasharray:none;stroke-opacity:1"
           id="rect342"
           width="15.18232"
           height="16.859798"
           x="28.043577"
           y="-21.497648"
           rx="0.92305934"
           ry="1.3408462" /><rect
           style="fill:#f9f9f9;fill-opacity:1;stroke:#000000;stroke-width:0.326916;stroke-linecap:round;stroke-linejoin:round;stroke-dasharray:none;stroke-opacity:1"
           id="rect343"
           width="13.781447"
           height="15.196262"
           x="28.744013"
           y="-20.84099"
           rx="0.92305934"
           ry="1.3408462" /><path
           id="path343"
           style="fill:#333333;fill-opacity:1;stroke:#000000;stroke-width:0.326916;stroke-linecap:round;stroke-linejoin:round;stroke-dasharray:none"
           d="m 42.510267,-11.156424 0.0152,4.3661979 c 0.0022,0.6345962 -0.219104,1.1454984 -0.491264,1.1454984 H 29.235277 c -0.27216,0 -0.491264,-0.5108923 -0.491264,-1.1454984 l 0.0152,-4.3586869 z"
           sodipodi:nodetypes="csssscc" /></g><g
         id="g345"
         transform="matrix(0.83233533,0,0,0.83427293,-0.0530457,-8.720157)"
         style="stroke-width:1.25973"><circle
           style="fill:#887c34;fill-opacity:1;stroke:#000000;stroke-width:0.666607;stroke-linecap:round;stroke-linejoin:round;stroke-dasharray:none;stroke-opacity:1"
           id="circle343"
           cx="130.69698"
           cy="-4.9249401"
           r="3.6554" /><circle
           style="fill:#d6d2b7;fill-opacity:1;stroke:#000000;stroke-width:0.333303;stroke-linecap:round;stroke-linejoin:round;stroke-dasharray:none;stroke-opacity:1"
           id="circle344"
           cx="130.67509"
           cy="-4.8592744"
           r="2.7141893" /><path
           style="fill:#887c34;fill-opacity:1;stroke:#000000;stroke-width:0.666607;stroke-linecap:round;stroke-linejoin:round;stroke-dasharray:none;stroke-opacity:1"
           d="m 130.10598,-8.5584518 -0.0657,-1.5103152 1.5541,-0.02189 -0.17511,1.5540925 z"
           id="path344" /><path
           style="fill:none;fill-opacity:1;stroke:#000000;stroke-width:0.666607;stroke-linecap:round;stroke-linejoin:round;stroke-dasharray:none;stroke-opacity:1"
           d="m 130.58753,-6.6979188 -0.0219,1.860533 1.5322,1.2695402"
           id="path345" /><circle
           style="fill:#000000;fill-opacity:1;stroke:#000000;stroke-width:0.333303;stroke-linecap:round;stroke-linejoin:round;stroke-dasharray:none;stroke-opacity:1"
           id="circle345"
           cx="130.59846"
           cy="-4.8264413"
           r="0.49249402" /></g></g><g
       id="g349"
       transform="translate(16.344338,203.56132)"><rect
         style="fill:#b3b3b3;fill-opacity:1;stroke:#000000;stroke-width:0.529167;stroke-linecap:round;stroke-linejoin:round;stroke-dasharray:none;stroke-opacity:1"
         id="rect346"
         width="10.216582"
         height="8.7510767"
         x="96.162117"
         y="-11.279911"
         rx="0.70772398"
         ry="0.81716889" /><rect
         style="fill:#91bfe8;fill-opacity:1;stroke:#000000;stroke-width:0.264582;stroke-linecap:round;stroke-linejoin:round;stroke-dasharray:none;stroke-opacity:1"
         id="rect347"
         width="9.0433664"
         height="6.9264531"
         x="96.767937"
         y="-10.441921"
         rx="0.70772398"
         ry="0.4888396" /><rect
         style="fill:#2c2cff;fill-opacity:1;stroke:#000000;stroke-width:0.264583;stroke-linecap:round;stroke-linejoin:round;stroke-dasharray:none;stroke-opacity:1"
         id="rect348"
         width="2.2326396"
         height="4.0712838"
         x="98.541298"
         y="-9.0463343" /><rect
         style="fill:#2c2cff;fill-opacity:1;stroke:#000000;stroke-width:0.264583;stroke-linecap:round;stroke-linejoin:round;stroke-dasharray:none;stroke-opacity:1"
         id="rect349"
         width="2.2326396"
         height="4.0712838"
         x="101.56193"
         y="-9.0463343" /></g><g
       id="g354"
       transform="translate(-7.738792,203.87087)"><rect
         style="fill:#b3b3b3;fill-opacity:1;stroke:#000000;stroke-width:0.529167;stroke-linecap:round;stroke-linejoin:round;stroke-dasharray:none;stroke-opacity:1"
         id="rect350"
         width="10.216582"
         height="8.7510767"
         x="107.987"
         y="-11.465642"
         rx="0.70772398"
         ry="0.81716889" /><rect
         style="fill:#d83153;fill-opacity:1;stroke:#000000;stroke-width:0.264582;stroke-linecap:round;stroke-linejoin:round;stroke-dasharray:none;stroke-opacity:1"
         id="rect351"
         width="9.0433664"
         height="6.9264531"
         x="108.59282"
         y="-10.627652"
         rx="0.70772398"
         ry="0.4888396" /><g
         id="g353"
         transform="translate(0.30955189,0.58814859)"><path
           id="path351"
           style="fill:#2b0000;fill-opacity:1;stroke:#000000;stroke-width:0.264583;stroke-linecap:round;stroke-linejoin:round;stroke-dasharray:none;stroke-opacity:1"
           d="m 114.84984,-10.254154 -0.48301,1.3157551 -2.63997,1.8827937 0.15033,0.4020064 2.78446,-2.0378417 1.39229,-0.2732392 z m 0.10387,0.6671423 0.5364,0.4650879 -0.78807,0.1090372 z"
           sodipodi:nodetypes="ccccccccccc" /><path
           style="fill:#cccccc;fill-opacity:1;stroke:#000000;stroke-width:0.264583;stroke-linecap:round;stroke-linejoin:round;stroke-dasharray:none;stroke-opacity:1"
           d="m 111.10037,-7.9385838 1.2726,2.1114974 c 0,0 -2.37543,0.5287436 -2.56961,0.19292 -0.34208,-0.5916264 1.29701,-2.3044174 1.29701,-2.3044174 z"
           id="path352"
           sodipodi:nodetypes="ccsc" /><path
           style="fill:none;fill-opacity:1;stroke:#000000;stroke-width:0.264583;stroke-linecap:round;stroke-linejoin:round;stroke-dasharray:none;stroke-opacity:1"
           d="m 111.8024,-6.8565743 -0.97013,0.5744544"
           id="path353"
           sodipodi:nodetypes="cc" /></g></g></g></svg>
