<?xml version="1.0" encoding="UTF-8" standalone="no"?>
<!-- Created with Inkscape (http://www.inkscape.org/) -->

<svg
   width="12.141822mm"
   height="14.962072mm"
   viewBox="0 0 12.141822 14.962072"
   version="1.1"
   id="svg1"
   xml:space="preserve"
   inkscape:version="1.3.2 (091e20e, 2023-11-25, custom)"
   sodipodi:docname="GUI PLANTS processo.svg"
   xmlns:inkscape="http://www.inkscape.org/namespaces/inkscape"
   xmlns:sodipodi="http://sodipodi.sourceforge.net/DTD/sodipodi-0.dtd"
   xmlns="http://www.w3.org/2000/svg"
   xmlns:svg="http://www.w3.org/2000/svg"><sodipodi:namedview
     id="namedview1"
     pagecolor="#ffffff"
     bordercolor="#000000"
     borderopacity="0.25"
     inkscape:showpageshadow="2"
     inkscape:pageopacity="0.0"
     inkscape:pagecheckerboard="0"
     inkscape:deskcolor="#d1d1d1"
     inkscape:document-units="mm"
     inkscape:zoom="0.53420635"
     inkscape:cx="335.07651"
     inkscape:cy="461.43218"
     inkscape:window-width="1920"
     inkscape:window-height="1017"
     inkscape:window-x="1072"
     inkscape:window-y="239"
     inkscape:window-maximized="1"
     inkscape:current-layer="layer1" /><defs
     id="defs1" /><g
     inkscape:label="Camada 1"
     inkscape:groupmode="layer"
     id="layer1"
     transform="translate(-72.113542,-265.02758)"><g
       id="g371"
       transform="matrix(0.95324312,0,0,0.95199695,-8.682717,282.57297)"
       style="stroke-width:1.04974"><g
         id="g367"
         transform="matrix(0.80432324,0,0,0.89738747,62.466184,1.1550147)"
         style="stroke-width:1.23559"><rect
           style="fill:#666666;fill-opacity:1;stroke:#000000;stroke-width:0.653834;stroke-linecap:round;stroke-linejoin:round;stroke-dasharray:none;stroke-opacity:1"
           id="rect366"
           width="15.18232"
           height="16.859798"
           x="28.043577"
           y="-21.497648"
           rx="0.92305934"
           ry="1.3408462" /><rect
           style="fill:#666666;fill-opacity:1;stroke:#000000;stroke-width:0.326916;stroke-linecap:round;stroke-linejoin:round;stroke-dasharray:none;stroke-opacity:1"
           id="rect367"
           width="13.781447"
           height="15.196262"
           x="28.744013"
           y="-20.84099"
           rx="0.92305934"
           ry="1.3408462" /><path
           id="path367"
           style="fill:#333333;fill-opacity:1;stroke:#000000;stroke-width:0.326916;stroke-linecap:round;stroke-linejoin:round;stroke-dasharray:none"
           d="m 42.510267,-11.156424 0.0152,4.3661979 c 0.0022,0.6345962 -0.219104,1.1454984 -0.491264,1.1454984 H 29.235277 c -0.27216,0 -0.491264,-0.5108923 -0.491264,-1.1454984 l 0.0152,-4.3586869 z"
           sodipodi:nodetypes="csssscc" /></g><g
         id="g370"
         transform="matrix(0.88577301,0,0,0.88444757,-2.0289027,-8.724928)"
         style="stroke-width:1.18599"><path
           style="fill:#808080;fill-opacity:1;stroke:#000000;stroke-width:0.627589;stroke-linecap:round;stroke-linejoin:round;stroke-dasharray:none;stroke-opacity:1"
           d="m 102.18473,-1.0141409 0.005,-1.0545347 -1.79119,0.0301 -0.009,-3.5749789 1.8489,-0.036944 0.0169,-2.1427963 c -0.0183,-0.7509975 2.01061,-0.9820183 2.45517,0.019577 -0.002,-0.5648189 1.976,-1.3155679 2.56685,0.021946 0.005,-0.7558165 2.54958,-1.0611997 2.59696,0.029531 l -0.0111,5.8763319 -1.01046,-0.00539 -0.0274,0.8334645 z"
           id="path368"
           sodipodi:nodetypes="ccccccccccccc" /><rect
           style="fill:#808080;fill-opacity:1;stroke:#000000;stroke-width:0.627589;stroke-linecap:round;stroke-linejoin:round;stroke-dasharray:none;stroke-opacity:1"
           id="rect368"
           width="2.5335631"
           height="2.9097877"
           x="102.27592"
           y="-8.7912731"
           rx="4.9859309"
           ry="0.31195509" /><rect
           style="fill:#808080;fill-opacity:1;stroke:#000000;stroke-width:0.627589;stroke-linecap:round;stroke-linejoin:round;stroke-dasharray:none;stroke-opacity:1"
           id="rect369"
           width="2.5335631"
           height="2.9097877"
           x="104.82615"
           y="-8.7912731"
           rx="4.9859309"
           ry="0.31195509" /><rect
           style="fill:#808080;fill-opacity:1;stroke:#000000;stroke-width:0.627589;stroke-linecap:round;stroke-linejoin:round;stroke-dasharray:none;stroke-opacity:1"
           id="rect370"
           width="2.5335631"
           height="2.9097877"
           x="107.32638"
           y="-8.7912731"
           rx="4.9859309"
           ry="0.31195509" /><path
           style="fill:#808080;fill-opacity:1;stroke:#000000;stroke-width:0.627589;stroke-linecap:round;stroke-linejoin:round;stroke-dasharray:none;stroke-opacity:1"
           d="m 100.39542,-3.6488429 -0.006,-2.3720072 c 0.0771,-0.2562079 0.23129,-0.4352362 0.49396,-0.5058344 l 1.65548,-0.022554 c 0.31376,0.053164 0.55766,0.1839462 0.68595,0.4431861 l -0.0121,1.6059422"
           id="path370"
           sodipodi:nodetypes="cccccc" /></g></g></g></svg>
